{"glyphs":{"0":{"ha":556,"x_min":64,"x_max":492,"o":"m 274 986 q 358 969 318 986 q 427 922 397 951 q 474 852 457 892 q 492 768 492 813 l 492 204 q 474 120 492 160 q 427 51 457 81 q 358 3 397 21 q 274 -14 318 -14 q 192 3 231 -14 q 126 49 154 19 q 81 116 97 78 q 64 197 64 154 l 64 775 q 81 856 64 818 q 126 924 97 894 q 192 969 154 953 q 274 986 231 986 m 274 154 q 308 169 293 154 q 324 204 324 185 l 324 768 q 308 803 324 788 q 274 818 293 818 q 244 805 257 818 q 232 775 232 792 l 232 197 q 244 167 232 181 q 274 154 257 154 z "},"1":{"ha":407,"x_min":49,"x_max":344,"o":"m 49 783 l 49 893 q 131 917 103 900 q 189 972 160 935 l 344 972 l 344 0 l 178 0 l 178 783 l 49 783 z "},"2":{"ha":558,"x_min":63,"x_max":496,"o":"m 63 775 q 79 858 63 819 q 124 924 96 896 q 192 969 153 953 q 274 986 231 986 q 372 964 331 986 q 441 905 414 942 q 482 820 468 868 q 496 721 496 772 q 487 632 496 674 q 456 547 478 590 q 358 356 407 451 q 258 167 310 261 l 489 167 l 489 0 l 65 0 l 65 167 q 100 231 83 200 q 130 286 115 257 q 156 335 144 315 q 231 478 193 407 q 304 624 268 550 q 322 671 315 647 q 329 722 329 694 q 327 752 329 736 q 319 783 325 768 q 302 807 313 797 q 274 817 292 817 q 245 807 254 817 q 233 783 236 797 q 231 752 231 768 q 232 724 232 736 l 63 724 l 63 775 z "},"3":{"ha":531,"x_min":49,"x_max":468,"o":"m 49 211 l 50 275 l 210 275 q 209 240 210 261 q 213 198 208 218 q 227 164 217 178 q 257 150 238 150 q 301 196 301 150 l 300 347 q 279 397 300 389 q 228 406 258 406 l 211 406 l 211 565 q 276 575 251 565 q 300 633 300 585 l 301 776 q 288 811 300 800 q 256 822 275 822 q 225 808 235 822 q 212 775 215 794 q 209 735 208 756 q 210 699 210 714 l 50 699 l 49 738 q 62 831 49 786 q 101 911 75 876 q 167 966 128 946 q 260 986 207 986 q 351 966 313 986 q 417 911 390 946 q 456 833 443 876 q 468 740 468 789 q 466 673 468 707 q 457 606 464 639 q 435 542 450 572 q 397 486 421 511 q 436 431 422 461 q 457 368 450 401 q 466 301 464 335 q 468 233 468 267 q 455 140 468 185 q 416 60 442 94 q 351 6 390 26 q 257 -14 311 -14 q 170 4 208 -14 q 105 53 132 22 q 63 124 78 83 q 49 211 49 165 z "},"4":{"ha":657,"x_min":63,"x_max":608,"o":"m 63 442 l 360 972 l 528 972 l 528 444 l 608 444 l 608 276 l 528 276 l 528 0 l 360 0 l 360 276 l 63 276 l 63 442 m 360 444 l 360 658 l 239 444 l 360 444 z "},"5":{"ha":603,"x_min":63,"x_max":540,"o":"m 483 972 l 483 806 l 229 806 l 229 611 q 283 642 253 635 q 338 650 313 650 q 415 635 378 650 q 479 593 451 619 q 524 530 507 567 q 540 450 540 493 l 540 225 q 522 132 540 175 q 472 56 504 89 q 396 5 439 24 q 303 -14 353 -14 q 211 5 254 -14 q 135 56 168 24 q 84 131 103 88 q 65 224 65 174 l 229 224 q 251 173 231 193 q 303 153 272 153 q 354 173 333 153 q 375 222 375 193 q 376 323 375 278 q 375 424 378 368 q 352 472 374 451 q 300 492 331 492 q 242 462 256 492 q 229 397 229 432 l 64 397 l 63 972 l 483 972 z "},"6":{"ha":599,"x_min":63,"x_max":536,"o":"m 229 208 q 251 168 229 183 q 301 153 274 153 q 349 169 329 153 q 369 217 369 186 l 369 436 q 348 476 369 460 q 299 493 326 493 q 250 476 271 493 q 229 436 229 460 l 229 208 m 371 749 q 351 800 369 779 q 300 821 332 821 q 250 800 268 821 q 229 749 232 779 l 229 615 q 271 640 249 633 q 319 646 293 646 q 401 632 363 646 q 470 592 440 618 q 518 531 500 567 q 536 454 536 496 l 536 436 l 536 218 q 516 127 535 169 q 465 53 497 85 q 391 4 433 22 q 300 -14 349 -14 q 212 3 254 -14 q 137 51 169 21 q 84 121 104 81 q 63 208 64 161 l 63 749 q 81 841 63 797 q 133 917 100 885 q 208 967 165 949 q 300 986 251 986 q 392 967 349 986 q 467 917 435 949 q 517 841 499 885 q 536 749 536 797 l 371 749 z "},"7":{"ha":574,"x_min":63,"x_max":511,"o":"m 333 806 l 86 806 l 86 972 l 511 972 l 511 806 l 239 0 l 63 0 l 333 806 z "},"8":{"ha":553,"x_min":63,"x_max":490,"o":"m 119 486 q 71 576 79 528 q 63 679 63 624 l 63 728 q 63 769 63 749 q 67 810 64 789 q 91 879 72 847 q 138 935 110 911 q 201 973 167 960 q 274 986 236 986 q 353 971 315 986 q 421 929 392 956 q 468 866 450 903 q 488 788 486 829 q 490 733 489 760 q 490 678 490 706 q 481 574 490 621 q 431 486 472 528 q 465 439 453 461 q 482 394 476 417 q 489 346 488 371 q 490 289 490 321 q 490 254 490 275 q 489 212 490 233 q 485 171 488 190 q 479 138 483 151 q 402 28 458 69 q 274 -14 346 -14 q 192 3 229 -14 q 120 52 146 24 q 81 115 94 81 q 65 190 68 150 q 63 274 63 231 q 63 331 63 301 q 69 388 64 360 q 85 440 74 415 q 119 486 97 465 m 231 613 q 244 581 231 593 q 278 568 257 568 q 310 581 297 568 q 322 613 322 593 l 322 775 q 308 808 322 794 q 275 821 293 821 q 244 808 258 821 q 229 775 229 796 q 230 694 229 738 q 231 613 231 650 m 231 188 q 246 162 231 174 q 278 150 261 150 q 309 162 296 150 q 322 189 322 174 l 322 367 q 308 392 322 381 q 275 403 294 403 q 243 392 256 403 q 231 368 231 381 l 231 188 z "},"9":{"ha":554,"x_min":63,"x_max":492,"o":"m 275 986 q 370 967 329 986 q 438 916 411 949 q 478 839 465 883 q 492 743 492 794 l 492 204 q 474 120 492 160 q 427 51 457 81 q 358 3 397 21 q 274 -14 318 -14 q 192 3 231 -14 q 124 48 153 19 q 79 115 96 76 q 63 197 63 154 l 63 278 l 232 278 q 231 243 232 264 q 232 203 229 222 q 245 169 235 183 q 281 154 256 154 q 313 171 303 154 q 324 204 324 188 l 324 428 q 292 412 308 417 q 260 407 276 407 q 182 421 218 407 q 119 459 146 435 q 78 515 93 483 q 63 583 63 547 l 63 778 q 79 860 63 822 q 125 926 96 899 q 193 970 154 954 q 275 986 232 986 m 231 611 q 244 584 231 596 q 278 572 258 572 q 310 585 297 574 q 324 611 324 596 l 324 778 q 310 809 324 799 q 278 819 297 819 q 244 808 258 819 q 231 778 231 797 l 231 611 z "},"\u0000":{"ha":0,"x_min":0,"x_max":0,"o":""},"\r":{"ha":347,"x_min":0,"x_max":0,"o":""}," ":{"ha":278,"x_min":0,"x_max":0,"o":""},"A":{"ha":588,"x_min":49,"x_max":539,"o":"m 49 0 l 153 972 l 436 972 l 539 0 l 372 0 l 340 319 l 247 319 l 217 0 l 49 0 m 324 486 l 294 822 l 264 486 l 324 486 z "},"B":{"ha":528,"x_min":63,"x_max":479,"o":"m 63 971 l 264 972 q 347 955 308 972 q 415 908 386 938 q 461 840 444 879 q 478 757 478 801 l 479 661 q 467 567 479 613 q 419 486 456 522 l 419 485 q 469 400 458 449 q 479 301 479 351 l 479 247 q 422 67 479 135 q 247 0 364 0 l 63 0 l 63 971 m 251 163 q 301 181 289 163 q 314 236 314 199 l 313 314 q 307 360 313 343 q 290 384 301 376 q 263 393 279 392 q 226 394 247 394 l 225 394 l 225 163 l 251 163 m 251 576 q 292 586 271 576 q 313 622 313 596 l 313 747 q 297 797 313 785 q 244 810 281 810 l 225 810 l 225 576 l 251 576 z "},"C":{"ha":542,"x_min":64,"x_max":493,"o":"m 64 192 l 64 779 q 82 865 64 826 q 130 930 100 903 q 200 972 160 957 q 286 986 240 986 q 367 969 329 986 q 433 925 404 953 q 477 859 461 897 q 493 779 493 821 l 493 651 l 325 651 l 325 779 q 308 810 325 803 q 271 817 290 817 q 244 806 256 817 q 232 779 232 794 l 232 192 q 249 161 232 168 q 286 154 267 154 q 313 165 301 154 q 325 192 325 176 l 325 322 l 493 322 l 493 192 q 475 106 493 144 q 427 42 457 68 q 357 1 397 15 q 271 -14 317 -14 q 190 2 228 -14 q 125 47 153 18 q 81 113 97 75 q 64 192 64 150 z "},"D":{"ha":540,"x_min":63,"x_max":492,"o":"m 274 974 q 358 956 318 974 q 427 909 397 939 q 474 840 457 879 q 492 756 492 800 l 492 219 q 474 135 492 175 q 427 66 457 96 q 358 19 397 36 q 274 1 318 1 l 63 1 l 63 974 l 274 974 m 231 169 l 274 169 q 308 185 293 169 q 324 219 324 200 l 324 756 q 308 790 324 775 q 274 806 293 806 l 231 806 l 231 169 z "},"E":{"ha":506,"x_min":63,"x_max":443,"o":"m 63 0 l 63 972 l 442 972 l 442 806 l 229 806 l 229 569 l 397 569 l 397 403 l 229 403 l 229 167 l 443 167 l 443 0 l 63 0 z "},"F":{"ha":490,"x_min":63,"x_max":442,"o":"m 63 0 l 63 972 l 442 972 l 442 806 l 229 806 l 229 571 l 425 571 l 425 404 l 229 404 l 229 0 l 63 0 z "},"G":{"ha":554,"x_min":63,"x_max":492,"o":"m 63 193 l 63 779 q 79 860 63 822 q 124 926 96 897 q 189 970 151 954 q 269 986 226 986 l 285 986 q 365 970 328 986 q 431 926 403 954 q 476 860 460 897 q 492 779 492 822 l 492 701 l 324 701 l 324 779 q 312 806 324 794 q 285 818 300 818 l 269 818 q 242 806 254 818 q 231 779 231 794 l 231 193 q 242 166 231 178 q 269 154 254 154 l 285 154 q 312 166 300 154 q 324 193 324 178 l 324 349 l 281 349 l 281 489 l 492 489 l 492 193 q 476 113 492 150 q 431 47 460 75 q 365 3 403 19 q 285 -14 328 -14 l 269 -14 q 189 3 226 -14 q 124 47 151 19 q 79 113 96 75 q 63 193 63 150 z "},"H":{"ha":551,"x_min":64,"x_max":488,"o":"m 231 972 l 231 571 l 321 571 l 321 972 l 488 972 l 488 0 l 321 0 l 321 404 l 231 404 l 231 0 l 64 0 l 64 972 l 231 972 z "},"I":{"ha":292,"x_min":63,"x_max":229,"o":"m 63 971 l 229 971 l 229 0 l 63 0 l 63 971 z "},"J":{"ha":539,"x_min":49,"x_max":476,"o":"m 49 189 l 49 319 l 217 319 l 217 189 q 228 163 217 174 q 254 151 239 151 l 271 151 q 297 163 286 151 q 308 189 308 174 l 308 969 l 476 969 l 476 189 q 460 110 476 147 q 417 44 444 72 q 351 -1 389 15 q 271 -17 314 -17 l 254 -17 q 175 -1 213 -17 q 109 44 138 15 q 65 110 81 72 q 49 189 49 147 z "},"K":{"ha":564,"x_min":63,"x_max":515,"o":"m 63 0 l 63 971 l 232 971 l 232 518 l 340 971 l 514 971 l 394 486 l 515 -1 l 342 -1 l 232 464 l 232 0 l 63 0 z "},"L":{"ha":475,"x_min":63,"x_max":440,"o":"m 63 972 l 229 972 l 229 167 l 440 167 l 440 0 l 63 0 l 63 972 z "},"M":{"ha":647,"x_min":63,"x_max":585,"o":"m 210 972 l 213 971 l 325 603 l 436 969 l 436 972 l 585 972 l 585 0 l 436 0 l 436 546 l 368 321 l 283 321 l 210 557 l 210 0 l 63 0 l 63 972 l 210 972 z "},"N":{"ha":550,"x_min":63,"x_max":488,"o":"m 63 0 l 63 972 l 210 972 l 210 971 l 339 494 l 339 972 l 488 972 l 488 0 l 339 0 l 210 476 l 210 0 l 63 0 z "},"O":{"ha":553,"x_min":63,"x_max":490,"o":"m 272 986 q 356 969 317 986 q 426 922 396 951 q 473 852 456 892 q 490 768 490 813 l 490 204 q 473 120 490 160 q 426 51 456 81 q 356 3 396 21 q 272 -14 317 -14 q 191 3 229 -14 q 124 49 153 19 q 79 116 96 78 q 63 197 63 154 l 63 775 q 79 856 63 818 q 124 924 96 894 q 191 969 153 953 q 272 986 229 986 m 272 154 q 307 169 292 154 q 322 204 322 185 l 322 768 q 307 803 322 788 q 272 818 292 818 q 243 805 256 818 q 231 775 231 792 l 231 197 q 243 167 231 181 q 272 154 256 154 z "},"P":{"ha":531,"x_min":63,"x_max":489,"o":"m 63 972 l 274 972 q 357 955 318 972 q 425 908 396 938 q 472 840 454 879 q 489 757 489 801 l 489 618 q 472 535 489 574 q 425 467 454 496 q 357 420 396 438 q 274 403 318 403 l 229 403 l 229 0 l 63 0 l 63 972 m 229 569 l 274 569 q 308 584 293 569 q 322 618 322 599 l 322 757 q 308 791 322 776 q 274 806 293 806 l 229 806 l 229 569 z "},"Q":{"ha":572,"x_min":63,"x_max":510,"o":"m 63 775 q 79 858 63 819 q 124 924 96 896 q 192 969 153 953 q 274 986 231 986 q 358 969 318 986 q 427 922 397 951 q 474 852 457 892 q 492 767 492 813 l 492 204 q 468 106 492 150 q 488 101 478 103 q 510 99 499 100 l 510 -50 l 508 -50 q 480 -48 500 -50 q 435 -41 460 -46 q 382 -28 410 -36 q 329 -7 354 -19 q 301 -12 315 -11 q 274 -14 288 -14 q 192 3 231 -14 q 124 47 153 19 q 79 114 96 75 q 63 196 63 153 l 63 775 m 231 196 q 243 166 231 178 q 274 154 256 154 q 308 169 293 154 q 324 204 324 183 l 324 767 q 308 802 324 788 q 274 817 293 817 q 243 805 256 817 q 231 775 231 793 l 231 196 z "},"R":{"ha":544,"x_min":63,"x_max":496,"o":"m 229 569 l 236 569 l 264 569 q 299 576 283 569 q 321 606 314 582 q 322 635 324 621 q 322 686 321 650 q 323 747 321 726 q 314 785 325 768 q 291 802 306 799 q 261 806 276 806 l 238 806 l 229 806 l 229 569 m 63 972 l 274 972 q 357 955 318 972 q 425 908 396 938 q 472 840 454 879 q 489 757 489 801 l 489 618 q 472 533 489 572 q 424 463 454 493 q 457 412 444 440 q 472 353 469 383 q 477 259 478 304 q 475 164 476 214 q 477 82 475 125 q 494 3 479 39 q 496 1 494 1 l 329 1 q 317 90 319 44 q 313 222 314 157 q 313 354 313 288 q 303 383 313 371 q 279 403 294 396 l 229 403 l 229 0 l 63 0 l 63 972 z "},"S":{"ha":514,"x_min":42,"x_max":472,"o":"m 261 986 q 344 969 306 986 q 410 924 382 953 q 456 858 439 896 q 472 775 472 819 l 472 726 l 303 726 q 302 760 303 743 q 297 789 301 776 q 282 810 292 801 q 253 818 272 818 q 219 797 226 818 q 211 754 211 775 q 231 665 211 706 q 279 588 250 625 q 342 515 308 551 q 404 435 375 478 q 453 342 433 393 q 472 225 472 290 q 457 134 472 178 q 413 58 442 90 q 344 6 385 25 q 253 -14 303 -14 q 171 3 210 -14 q 104 49 132 19 q 60 116 76 78 q 43 197 43 154 l 43 247 l 211 247 q 210 219 211 235 q 213 188 210 203 q 226 164 217 174 q 253 154 235 154 q 290 174 276 154 q 304 215 304 193 q 285 303 304 264 q 236 380 265 343 q 173 455 207 417 q 110 537 139 493 q 61 635 81 581 q 42 757 42 689 q 58 847 42 806 q 102 920 74 889 q 171 969 131 951 q 261 986 211 986 z "},"T":{"ha":493,"x_min":35,"x_max":458,"o":"m 35 972 l 458 972 l 458 806 l 331 806 l 331 0 l 164 0 l 164 806 l 35 806 l 35 972 z "},"U":{"ha":553,"x_min":63,"x_max":490,"o":"m 63 196 l 63 972 l 231 972 l 231 196 q 243 167 231 179 q 272 154 256 154 q 308 169 293 154 q 322 204 322 183 l 322 971 l 490 971 l 490 204 q 473 119 490 158 q 426 50 456 79 q 358 3 397 21 q 272 -14 318 -14 q 191 3 229 -14 q 124 48 153 19 q 79 115 96 76 q 63 196 63 153 z "},"V":{"ha":560,"x_min":35,"x_max":525,"o":"m 35 972 l 203 972 l 281 125 l 358 972 l 525 972 l 422 0 l 139 0 l 35 972 z "},"W":{"ha":883,"x_min":35,"x_max":849,"o":"m 35 972 l 203 972 l 281 125 l 358 972 l 526 972 l 604 125 l 682 972 l 849 972 l 746 0 l 490 0 l 442 519 l 394 0 l 139 0 l 35 972 z "},"X":{"ha":614,"x_min":49,"x_max":565,"o":"m 222 972 q 264 851 243 911 q 304 731 285 792 q 383 972 346 851 l 556 972 q 470 735 511 853 q 386 496 429 617 q 475 248 431 371 q 565 0 519 125 l 392 0 q 348 128 369 64 q 304 256 326 192 q 263 128 283 192 q 221 0 242 64 l 49 0 q 137 244 94 122 q 224 489 179 367 q 136 731 179 611 q 49 972 93 850 l 222 972 z "},"Y":{"ha":599,"x_min":35,"x_max":564,"o":"m 35 972 l 206 972 l 300 579 l 394 972 l 564 972 l 383 326 l 383 0 l 215 0 l 215 328 l 35 972 z "},"Z":{"ha":550,"x_min":63,"x_max":488,"o":"m 63 806 l 63 972 l 488 972 l 488 806 l 242 167 l 488 167 l 488 0 l 63 0 l 63 167 l 308 806 l 63 806 z "},"Ѓ":{"ha":475,"x_min":63,"x_max":440,"o":"m 63 0 l 63 972 l 440 972 l 440 806 l 229 806 l 229 0 l 63 0 m 243 1176 l 356 1176 l 267 1028 l 182 1028 l 243 1176 z "},"Љ":{"ha":894,"x_min":49,"x_max":832,"o":"m 138 279 l 174 969 l 571 969 l 571 543 q 602 545 586 544 q 635 546 618 546 q 720 528 683 546 q 781 479 757 510 q 818 408 806 449 q 831 322 831 367 q 831 285 831 303 q 832 247 832 267 q 831 209 832 228 q 826 171 829 190 q 801 102 821 133 q 753 48 782 71 q 691 13 725 25 q 619 0 657 0 l 418 0 l 418 817 l 319 817 l 290 269 q 273 173 288 219 q 232 89 258 126 q 166 26 206 51 q 74 -10 126 0 l 49 143 q 90 160 74 147 q 116 193 106 174 q 131 235 126 213 q 138 279 136 258 m 571 406 l 571 153 l 601 153 q 644 160 629 153 q 667 180 660 167 q 675 212 674 193 q 676 253 676 231 q 676 292 676 272 q 675 332 675 313 q 656 392 675 379 q 593 406 636 406 l 571 406 z "},"Њ":{"ha":811,"x_min":63,"x_max":763,"o":"m 63 972 l 229 972 l 229 571 l 319 571 l 319 972 l 486 972 l 486 565 q 508 569 497 568 q 531 571 519 571 q 620 552 578 571 q 694 502 663 533 q 744 428 725 471 q 763 339 763 386 l 763 232 q 744 142 763 185 q 694 69 725 100 q 620 19 663 38 q 531 0 578 0 l 321 0 l 321 404 l 229 404 l 229 0 l 63 0 l 63 972 m 488 167 l 531 167 q 576 186 557 167 q 596 232 596 206 l 596 339 q 576 385 596 365 q 531 404 557 404 l 488 404 l 488 167 z "},"Ў":{"ha":556,"x_min":35,"x_max":535,"o":"m 204 972 l 283 644 l 363 972 l 535 972 l 358 250 q 318 138 343 186 q 257 59 293 90 q 170 11 221 28 q 53 -7 119 -6 l 46 160 q 124 174 96 160 q 169 212 153 188 q 194 270 186 236 q 211 344 203 304 l 35 972 l 204 972 z "},"Б":{"ha":550,"x_min":63,"x_max":488,"o":"m 63 0 l 63 972 l 440 972 l 440 806 l 229 806 l 229 651 q 228 567 228 608 q 243 569 236 568 q 258 570 250 569 q 272 571 265 571 q 356 553 317 571 q 424 507 394 536 q 470 439 453 478 q 488 356 488 400 l 488 215 q 470 132 488 171 q 424 64 453 93 q 356 17 394 35 q 272 0 317 0 l 63 0 m 231 404 l 231 167 l 272 167 q 306 181 292 167 q 321 215 321 196 l 321 356 q 306 390 321 375 q 272 404 292 404 l 231 404 z "},"Г":{"ha":475,"x_min":63,"x_max":440,"o":"m 63 0 l 63 972 l 440 972 l 440 806 l 229 806 l 229 0 l 63 0 z "},"Д":{"ha":706,"x_min":42,"x_max":664,"o":"m 103 165 q 148 213 136 179 q 161 279 160 247 l 199 971 l 594 971 l 594 165 l 664 165 l 664 -1 l 42 -1 l 42 165 l 103 165 m 293 165 l 442 165 l 442 817 l 343 817 l 314 269 q 293 165 311 215 z "},"Ж":{"ha":813,"x_min":49,"x_max":764,"o":"m 215 971 l 271 558 l 332 558 l 332 972 l 481 972 l 481 558 l 539 558 l 596 971 l 764 971 l 710 646 q 693 565 703 606 q 683 485 683 525 q 693 403 683 443 q 710 324 703 364 l 763 0 l 594 0 l 538 411 l 481 411 l 481 0 l 332 0 l 332 411 l 271 411 l 217 0 l 50 0 l 106 324 q 123 403 113 364 q 133 485 133 443 q 122 566 133 526 q 104 646 111 606 l 49 971 l 215 971 z "},"И":{"ha":550,"x_min":63,"x_max":488,"o":"m 63 0 l 63 972 l 210 972 l 210 494 l 339 972 l 488 972 l 488 0 l 339 0 l 339 476 l 211 0 l 63 0 z "},"К":{"ha":564,"x_min":63,"x_max":515,"o":"m 63 0 l 63 971 l 232 971 l 232 518 l 340 971 l 514 971 l 394 486 l 515 -1 l 342 -1 l 232 464 l 232 0 l 63 0 z "},"Л":{"ha":633,"x_min":49,"x_max":571,"o":"m 49 143 q 89 161 72 147 q 116 194 106 175 q 131 236 126 214 q 138 279 136 258 l 174 969 l 571 969 l 571 0 l 418 0 l 418 817 l 319 817 l 290 268 q 272 173 288 219 q 230 89 257 126 q 164 25 203 51 q 74 -10 125 -1 l 49 143 z "},"П":{"ha":551,"x_min":63,"x_max":489,"o":"m 489 972 l 489 0 l 322 0 l 322 806 l 229 806 l 229 0 l 63 0 l 63 972 l 489 972 z "},"Р":{"ha":531,"x_min":63,"x_max":489,"o":"m 63 972 l 274 972 q 357 955 318 972 q 425 908 396 938 q 472 840 454 879 q 489 757 489 801 l 489 618 q 472 535 489 574 q 425 467 454 496 q 357 420 396 438 q 274 403 318 403 l 229 403 l 229 0 l 63 0 l 63 972 m 229 569 l 274 569 q 308 584 293 569 q 322 618 322 599 l 322 757 q 308 791 322 776 q 274 806 293 806 l 229 806 l 229 569 z "},"У":{"ha":569,"x_min":49,"x_max":549,"o":"m 218 972 l 297 644 l 376 972 l 549 972 l 372 250 q 332 138 357 186 q 271 59 307 90 q 184 11 235 28 q 67 -7 133 -6 l 60 160 q 138 174 110 160 q 183 212 167 188 q 208 270 200 236 q 225 344 217 304 l 49 972 l 218 972 z "},"Ф":{"ha":788,"x_min":63,"x_max":725,"o":"m 63 586 q 63 634 63 610 q 65 682 63 658 q 136 832 74 776 q 293 888 199 888 l 311 886 l 311 986 l 478 986 l 478 886 l 508 886 q 592 869 553 886 q 661 822 632 851 q 708 754 690 793 q 725 669 725 715 l 725 407 q 721 292 725 350 q 699 206 717 244 q 650 142 681 168 q 579 101 619 115 q 492 88 539 88 l 478 88 l 478 -14 l 311 -14 l 311 86 q 298 85 304 86 q 285 85 292 85 q 267 85 276 85 q 250 88 258 86 q 177 113 211 93 q 118 161 143 132 q 78 228 93 190 q 64 304 64 265 q 63 445 64 375 q 63 586 63 515 m 233 333 q 235 295 233 313 q 243 265 236 278 q 263 246 250 253 q 301 239 276 239 l 311 240 l 311 732 q 255 722 276 732 q 233 672 233 711 q 235 561 233 617 q 238 450 238 506 q 235 392 238 421 q 233 333 233 363 m 478 240 q 534 251 513 240 q 556 301 556 263 q 553 424 556 364 q 551 547 551 485 q 553 591 551 569 q 554 636 554 613 q 553 675 554 657 q 545 706 551 693 q 524 727 539 719 q 485 735 510 735 l 478 735 l 478 240 z "},"Ц":{"ha":631,"x_min":63,"x_max":589,"o":"m 63 972 l 229 972 l 229 167 l 319 167 l 319 972 l 486 972 l 486 167 l 589 167 l 589 0 l 63 0 l 63 972 z "},"Ч":{"ha":558,"x_min":49,"x_max":496,"o":"m 49 618 l 49 972 l 215 972 l 215 618 q 230 583 215 599 q 264 568 244 568 l 329 568 l 329 972 l 496 972 l 496 0 l 329 0 l 329 403 l 264 403 q 181 420 219 403 q 113 467 142 438 q 66 535 83 496 q 49 618 49 574 z "},"Ш":{"ha":647,"x_min":63,"x_max":585,"o":"m 63 0 l 63 972 l 210 972 l 210 149 l 250 149 l 250 972 l 397 972 l 397 149 l 436 149 l 436 972 l 585 972 l 585 0 l 63 0 z "},"Џ":{"ha":551,"x_min":63,"x_max":489,"o":"m 63 1 l 63 972 l 231 972 l 231 171 l 321 171 l 321 972 l 489 972 l 489 1 l 360 1 l 360 -69 l 193 -69 l 193 1 l 63 1 z "},",":{"ha":244,"x_min":56,"x_max":224,"o":"m 125 0 l 56 0 l 56 168 l 224 168 l 224 0 l 139 -94 l 93 -94 l 125 0 z "},".":{"ha":244,"x_min":56,"x_max":224,"o":"m 56 168 l 224 168 l 224 0 l 56 0 l 56 168 z "},"/":{"ha":538,"x_min":21,"x_max":517,"o":"m 393 972 l 517 972 l 146 0 l 21 0 l 393 972 z "},"!":{"ha":324,"x_min":63,"x_max":263,"o":"m 69 972 l 256 972 q 261 600 263 786 q 242 225 260 414 l 82 225 q 64 600 65 414 q 69 972 63 786 m 78 168 l 246 168 l 246 0 l 78 0 l 78 168 z "},"\\":{"ha":538,"x_min":21,"x_max":517,"o":"m 21 972 l 146 972 l 517 0 l 393 0 l 21 972 z "},"\"":{"ha":486,"x_min":56,"x_max":431,"o":"m 56 818 l 56 986 l 224 986 l 224 818 l 139 724 l 93 724 l 125 818 l 56 818 m 263 986 l 431 986 l 431 818 l 346 724 l 301 724 l 332 818 l 263 818 l 263 986 z "},":":{"ha":244,"x_min":56,"x_max":224,"o":"m 224 507 l 224 339 l 56 339 l 56 507 l 224 507 m 56 168 l 224 168 l 224 0 l 56 0 l 56 168 z "},";":{"ha":244,"x_min":56,"x_max":224,"o":"m 224 168 l 224 0 l 139 -94 l 93 -94 l 125 0 l 56 0 l 56 168 l 224 168 m 56 507 l 224 507 l 224 339 l 56 339 l 56 507 z "},"(":{"ha":365,"x_min":63,"x_max":289,"o":"m 63 808 q 79 899 63 857 q 124 973 96 942 q 191 1023 153 1004 q 272 1042 229 1042 l 289 1042 l 289 917 q 233 899 249 917 q 217 854 217 882 l 217 118 q 233 73 217 90 q 289 56 249 56 l 289 -69 l 272 -69 q 191 -51 229 -69 q 124 -1 153 -33 q 79 73 96 31 q 63 164 63 115 l 63 808 z "},"?":{"ha":557,"x_min":63,"x_max":494,"o":"m 68 824 q 95 890 76 860 q 142 941 114 919 q 203 974 169 963 q 276 986 238 986 q 365 967 325 986 q 433 917 404 949 q 478 844 463 886 q 494 756 494 801 q 472 630 494 686 q 420 522 449 574 q 369 422 392 471 q 346 315 346 372 q 361 229 346 274 l 186 229 q 172 324 172 272 q 182 408 172 368 q 206 480 192 447 q 233 537 219 513 q 256 575 247 561 q 288 631 275 607 q 310 677 301 656 q 322 719 318 699 q 325 761 325 739 q 310 803 325 790 q 278 817 296 817 q 245 804 258 817 q 232 767 232 792 l 232 665 l 64 665 q 64 694 64 681 q 63 720 63 707 q 63 743 63 733 q 63 781 63 761 q 68 824 63 800 m 196 0 l 196 168 l 364 168 l 364 0 l 196 0 z "},"-":{"ha":414,"x_min":56,"x_max":358,"o":"m 56 579 l 358 579 l 358 411 l 56 411 l 56 579 z "},"_":{"ha":556,"x_min":21,"x_max":535,"o":"m 21 -15 l 535 -15 l 535 -132 l 21 -132 l 21 -15 z "},"|":{"ha":278,"x_min":56,"x_max":222,"o":"m 56 -69 l 56 1043 l 222 1043 l 222 -69 l 56 -69 z "},"#":{"ha":792,"x_min":63,"x_max":729,"o":"m 63 236 l 89 389 l 169 389 l 207 608 l 128 608 l 156 761 l 235 761 l 272 972 l 425 972 l 388 761 l 490 761 l 528 972 l 681 972 l 643 761 l 729 761 l 701 608 l 617 608 l 578 389 l 664 389 l 636 236 l 550 236 l 508 0 l 356 0 l 397 236 l 294 236 l 253 0 l 100 0 l 142 236 l 63 236 m 322 389 l 425 389 l 464 608 l 360 608 l 322 389 z "},"a":{"ha":588,"x_min":49,"x_max":539,"o":"m 49 0 l 153 972 l 436 972 l 539 0 l 372 0 l 340 319 l 247 319 l 217 0 l 49 0 m 324 486 l 294 822 l 264 486 l 324 486 z "},"b":{"ha":528,"x_min":63,"x_max":479,"o":"m 63 971 l 264 972 q 347 955 308 972 q 415 908 386 938 q 461 840 444 879 q 478 757 478 801 l 479 661 q 467 567 479 613 q 419 486 456 522 l 419 485 q 469 400 458 449 q 479 301 479 351 l 479 247 q 422 67 479 135 q 247 0 364 0 l 63 0 l 63 971 m 251 163 q 301 181 289 163 q 314 236 314 199 l 313 314 q 307 360 313 343 q 290 384 301 376 q 263 393 279 392 q 226 394 247 394 l 225 394 l 225 163 l 251 163 m 251 576 q 292 586 271 576 q 313 622 313 596 l 313 747 q 297 797 313 785 q 244 810 281 810 l 225 810 l 225 576 l 251 576 z "},"c":{"ha":540,"x_min":63,"x_max":492,"o":"m 63 192 l 63 779 q 81 865 63 826 q 128 930 99 903 q 199 972 158 957 q 285 986 239 986 q 365 969 328 986 q 431 925 403 953 q 476 859 460 897 q 492 779 492 821 l 492 651 l 324 651 l 324 779 q 306 810 324 803 q 269 817 289 817 q 242 806 254 817 q 231 779 231 794 l 231 192 q 248 161 231 168 q 285 154 265 154 q 312 165 300 154 q 324 192 324 176 l 324 322 l 492 322 l 492 192 q 474 106 492 144 q 426 42 456 68 q 356 1 396 15 q 269 -14 315 -14 q 189 2 226 -14 q 124 47 151 18 q 79 113 96 75 q 63 192 63 150 z "},"d":{"ha":540,"x_min":63,"x_max":492,"o":"m 274 974 q 358 956 318 974 q 427 909 397 939 q 474 840 457 879 q 492 756 492 800 l 492 219 q 474 135 492 175 q 427 66 457 96 q 358 19 397 36 q 274 1 318 1 l 63 1 l 63 974 l 274 974 m 231 169 l 274 169 q 308 185 293 169 q 324 219 324 200 l 324 756 q 308 790 324 775 q 274 806 293 806 l 231 806 l 231 169 z "},"e":{"ha":506,"x_min":63,"x_max":443,"o":"m 63 0 l 63 972 l 442 972 l 442 806 l 229 806 l 229 569 l 397 569 l 397 403 l 229 403 l 229 167 l 443 167 l 443 0 l 63 0 z "},"f":{"ha":490,"x_min":63,"x_max":442,"o":"m 63 0 l 63 972 l 442 972 l 442 806 l 229 806 l 229 571 l 425 571 l 425 404 l 229 404 l 229 0 l 63 0 z "},"g":{"ha":554,"x_min":63,"x_max":492,"o":"m 63 193 l 63 779 q 79 860 63 822 q 124 926 96 897 q 189 970 151 954 q 269 986 226 986 l 285 986 q 365 970 328 986 q 431 926 403 954 q 476 860 460 897 q 492 779 492 822 l 492 701 l 324 701 l 324 779 q 312 806 324 794 q 285 818 300 818 l 269 818 q 242 806 254 818 q 231 779 231 794 l 231 193 q 242 166 231 178 q 269 154 254 154 l 285 154 q 312 166 300 154 q 324 193 324 178 l 324 349 l 281 349 l 281 489 l 492 489 l 492 193 q 476 113 492 150 q 431 47 460 75 q 365 3 403 19 q 285 -14 328 -14 l 269 -14 q 189 3 226 -14 q 124 47 151 19 q 79 113 96 75 q 63 193 63 150 z "},"h":{"ha":551,"x_min":64,"x_max":488,"o":"m 231 972 l 231 571 l 321 571 l 321 972 l 488 972 l 488 0 l 321 0 l 321 404 l 231 404 l 231 0 l 64 0 l 64 972 l 231 972 z "},"i":{"ha":292,"x_min":63,"x_max":229,"o":"m 63 971 l 229 971 l 229 0 l 63 0 l 63 971 z "},"j":{"ha":533,"x_min":43,"x_max":472,"o":"m 44 189 l 44 319 l 213 319 l 213 189 q 224 163 213 174 q 250 151 235 151 l 267 151 q 293 163 282 151 q 304 189 304 174 l 304 969 l 472 969 l 472 189 q 456 110 472 147 q 413 44 440 72 q 347 -1 385 15 q 267 -17 310 -17 l 250 -17 q 171 -1 208 -17 q 105 44 133 15 q 60 110 76 72 q 44 189 44 147 z "},"k":{"ha":564,"x_min":63,"x_max":515,"o":"m 63 0 l 63 971 l 232 971 l 232 518 l 340 971 l 514 971 l 394 486 l 515 -1 l 342 -1 l 232 464 l 232 0 l 63 0 m 63 0 l 63 971 l 232 971 l 232 518 l 340 971 l 514 971 l 394 486 l 515 -1 l 342 -1 l 232 464 l 232 0 l 63 0 z "},"l":{"ha":475,"x_min":63,"x_max":440,"o":"m 63 972 l 229 972 l 229 167 l 440 167 l 440 0 l 63 0 l 63 972 z "},"m":{"ha":647,"x_min":63,"x_max":585,"o":"m 210 972 l 213 971 l 325 603 l 436 969 l 436 972 l 585 972 l 585 0 l 436 0 l 436 546 l 368 321 l 283 321 l 210 557 l 210 0 l 63 0 l 63 972 l 210 972 z "},"n":{"ha":550,"x_min":63,"x_max":488,"o":"m 63 0 l 63 972 l 210 972 l 210 971 l 339 494 l 339 972 l 488 972 l 488 0 l 339 0 l 210 476 l 210 0 l 63 0 z "},"o":{"ha":553,"x_min":63,"x_max":490,"o":"m 272 986 q 356 969 317 986 q 426 922 396 951 q 473 852 456 892 q 490 768 490 813 l 490 204 q 473 120 490 160 q 426 51 456 81 q 356 3 396 21 q 272 -14 317 -14 q 191 3 229 -14 q 124 49 153 19 q 79 116 96 78 q 63 197 63 154 l 63 775 q 79 856 63 818 q 124 924 96 894 q 191 969 153 953 q 272 986 229 986 m 272 154 q 307 169 292 154 q 322 204 322 185 l 322 768 q 307 803 322 788 q 272 818 292 818 q 243 805 256 818 q 231 775 231 792 l 231 197 q 243 167 231 181 q 272 154 256 154 z "},"p":{"ha":531,"x_min":63,"x_max":489,"o":"m 63 972 l 274 972 q 357 955 318 972 q 425 908 396 938 q 472 840 454 879 q 489 757 489 801 l 489 618 q 472 535 489 574 q 425 467 454 496 q 357 420 396 438 q 274 403 318 403 l 229 403 l 229 0 l 63 0 l 63 972 m 229 569 l 274 569 q 308 584 293 569 q 322 618 322 599 l 322 757 q 308 791 322 776 q 274 806 293 806 l 229 806 l 229 569 z "},"q":{"ha":558,"x_min":63,"x_max":510,"o":"m 63 775 q 79 858 63 819 q 124 924 96 896 q 192 969 153 953 q 274 986 231 986 q 358 969 318 986 q 427 922 397 951 q 474 852 457 892 q 492 767 492 813 l 492 204 q 468 106 492 150 q 488 101 478 103 q 510 99 499 100 l 510 -50 l 508 -50 q 480 -48 500 -50 q 435 -41 460 -46 q 382 -28 410 -36 q 329 -7 354 -19 q 301 -12 315 -11 q 274 -14 288 -14 q 192 3 231 -14 q 124 47 153 19 q 79 114 96 75 q 63 196 63 153 l 63 775 m 231 196 q 243 166 231 178 q 274 154 256 154 q 308 169 293 154 q 324 204 324 183 l 324 767 q 308 802 324 788 q 274 817 293 817 q 243 805 256 817 q 231 775 231 793 l 231 196 z "},"r":{"ha":544,"x_min":63,"x_max":496,"o":"m 229 569 l 236 569 l 264 569 q 299 576 283 569 q 321 606 314 582 q 322 635 324 621 q 322 686 321 650 q 323 747 321 726 q 314 785 325 768 q 291 802 306 799 q 261 806 276 806 l 238 806 l 229 806 l 229 569 m 63 972 l 274 972 q 357 955 318 972 q 425 908 396 938 q 472 840 454 879 q 489 757 489 801 l 489 618 q 472 533 489 572 q 424 463 454 493 q 457 412 444 440 q 472 353 469 383 q 477 259 478 304 q 475 164 476 214 q 477 82 475 125 q 494 3 479 39 q 496 1 494 1 l 329 1 q 317 90 319 44 q 313 222 314 157 q 313 354 313 288 q 303 383 313 371 q 279 403 294 396 l 229 403 l 229 0 l 63 0 l 63 972 z "},"s":{"ha":514,"x_min":42,"x_max":472,"o":"m 261 986 q 344 969 306 986 q 410 924 382 953 q 456 858 439 896 q 472 775 472 819 l 472 726 l 303 726 q 302 760 303 743 q 297 789 301 776 q 282 810 292 801 q 253 818 272 818 q 219 797 226 818 q 211 754 211 775 q 231 665 211 706 q 279 588 250 625 q 342 515 308 551 q 404 435 375 478 q 453 342 433 393 q 472 225 472 290 q 457 134 472 178 q 413 58 442 90 q 344 6 385 25 q 253 -14 303 -14 q 171 3 210 -14 q 104 49 132 19 q 60 116 76 78 q 43 197 43 154 l 43 247 l 211 247 q 210 219 211 235 q 213 188 210 203 q 226 164 217 174 q 253 154 235 154 q 290 174 276 154 q 304 215 304 193 q 285 303 304 264 q 236 380 265 343 q 173 455 207 417 q 110 537 139 493 q 61 635 81 581 q 42 757 42 689 q 58 847 42 806 q 102 920 74 889 q 171 969 131 951 q 261 986 211 986 z "},"t":{"ha":493,"x_min":35,"x_max":458,"o":"m 35 972 l 458 972 l 458 806 l 331 806 l 331 0 l 164 0 l 164 806 l 35 806 l 35 972 z "},"u":{"ha":553,"x_min":63,"x_max":490,"o":"m 63 196 l 63 972 l 231 972 l 231 196 q 243 167 231 179 q 272 154 256 154 q 308 169 293 154 q 322 204 322 183 l 322 971 l 490 971 l 490 204 q 473 119 490 158 q 426 50 456 79 q 358 3 397 21 q 272 -14 318 -14 q 191 3 229 -14 q 124 48 153 19 q 79 115 96 76 q 63 196 63 153 z "},"v":{"ha":560,"x_min":35,"x_max":525,"o":"m 35 972 l 203 972 l 281 125 l 358 972 l 525 972 l 422 0 l 139 0 l 35 972 z "},"w":{"ha":883,"x_min":35,"x_max":849,"o":"m 35 972 l 203 972 l 281 125 l 358 972 l 526 972 l 604 125 l 682 972 l 849 972 l 746 0 l 490 0 l 442 519 l 394 0 l 139 0 l 35 972 z "},"x":{"ha":614,"x_min":49,"x_max":565,"o":"m 222 972 q 264 851 243 911 q 304 731 285 792 q 383 972 346 851 l 556 972 q 470 735 511 853 q 386 496 429 617 q 475 248 431 371 q 565 0 519 125 l 392 0 q 348 128 369 64 q 304 256 326 192 q 263 128 283 192 q 221 0 242 64 l 49 0 q 137 244 94 122 q 224 489 179 367 q 136 731 179 611 q 49 972 93 850 l 222 972 z "},"y":{"ha":599,"x_min":35,"x_max":564,"o":"m 35 972 l 206 972 l 300 579 l 394 972 l 564 972 l 383 326 l 383 0 l 215 0 l 215 328 l 35 972 z "},"z":{"ha":550,"x_min":63,"x_max":488,"o":"m 63 806 l 63 972 l 488 972 l 488 806 l 242 167 l 488 167 l 488 0 l 63 0 l 63 167 l 308 806 l 63 806 z "},"А":{"ha":588,"x_min":49,"x_max":539,"o":"m 49 0 l 153 972 l 436 972 l 539 0 l 372 0 l 340 319 l 247 319 l 217 0 l 49 0 m 324 486 l 294 822 l 264 486 l 324 486 z "},"В":{"ha":528,"x_min":63,"x_max":479,"o":"m 63 971 l 264 972 q 347 955 308 972 q 415 908 386 938 q 461 840 444 879 q 478 757 478 801 l 479 661 q 467 567 479 613 q 419 486 456 522 l 419 485 q 469 400 458 449 q 479 301 479 351 l 479 247 q 422 67 479 135 q 247 0 364 0 l 63 0 l 63 971 m 251 163 q 301 181 289 163 q 314 236 314 199 l 313 314 q 307 360 313 343 q 290 384 301 376 q 263 393 279 392 q 226 394 247 394 l 225 394 l 225 163 l 251 163 m 251 576 q 292 586 271 576 q 313 622 313 596 l 313 747 q 297 797 313 785 q 244 810 281 810 l 225 810 l 225 576 l 251 576 z "},"Е":{"ha":506,"x_min":63,"x_max":443,"o":"m 63 0 l 63 972 l 442 972 l 442 806 l 229 806 l 229 569 l 397 569 l 397 403 l 229 403 l 229 167 l 443 167 l 443 0 l 63 0 z "},"З":{"ha":531,"x_min":49,"x_max":468,"o":"m 49 211 l 50 275 l 210 275 q 209 240 210 261 q 213 198 208 218 q 227 164 217 178 q 257 150 238 150 q 301 196 301 150 l 300 347 q 279 397 300 389 q 228 406 258 406 l 211 406 l 211 565 q 276 575 251 565 q 300 633 300 585 l 301 776 q 288 811 300 800 q 256 822 275 822 q 225 808 235 822 q 212 775 215 794 q 209 735 208 756 q 210 699 210 714 l 50 699 l 49 738 q 62 831 49 786 q 101 911 75 876 q 167 966 128 946 q 260 986 207 986 q 351 966 313 986 q 417 911 390 946 q 456 833 443 876 q 468 740 468 789 q 466 673 468 707 q 457 606 464 639 q 435 542 450 572 q 397 486 421 511 q 436 431 422 461 q 457 368 450 401 q 466 301 464 335 q 468 233 468 267 q 455 140 468 185 q 416 60 442 94 q 351 6 390 26 q 257 -14 311 -14 q 170 4 208 -14 q 105 53 132 22 q 63 124 78 83 q 49 211 49 165 z "},"М":{"ha":647,"x_min":63,"x_max":585,"o":"m 210 972 l 213 971 l 325 603 l 436 969 l 436 972 l 585 972 l 585 0 l 436 0 l 436 546 l 368 321 l 283 321 l 210 557 l 210 0 l 63 0 l 63 972 l 210 972 z "},"Н":{"ha":551,"x_min":64,"x_max":488,"o":"m 231 972 l 231 571 l 321 571 l 321 972 l 488 972 l 488 0 l 321 0 l 321 404 l 231 404 l 231 0 l 64 0 l 64 972 l 231 972 z "},"О":{"ha":556,"x_min":64,"x_max":492,"o":"m 274 986 q 358 969 318 986 q 427 922 397 951 q 474 852 457 892 q 492 768 492 813 l 492 204 q 474 120 492 160 q 427 51 457 81 q 358 3 397 21 q 274 -14 318 -14 q 192 3 231 -14 q 126 49 154 19 q 81 116 97 78 q 64 197 64 154 l 64 775 q 81 856 64 818 q 126 924 97 894 q 192 969 154 953 q 274 986 231 986 m 274 154 q 308 169 293 154 q 324 204 324 185 l 324 768 q 308 803 324 788 q 274 818 293 818 q 244 805 257 818 q 232 775 232 792 l 232 197 q 244 167 232 181 q 274 154 257 154 z "},"С":{"ha":542,"x_min":64,"x_max":493,"o":"m 64 192 l 64 779 q 82 865 64 826 q 130 930 100 903 q 200 972 160 957 q 286 986 240 986 q 367 969 329 986 q 433 925 404 953 q 477 859 461 897 q 493 779 493 821 l 493 651 l 325 651 l 325 779 q 308 810 325 803 q 271 817 290 817 q 244 806 256 817 q 232 779 232 794 l 232 192 q 249 161 232 168 q 286 154 267 154 q 313 165 301 154 q 325 192 325 176 l 325 322 l 493 322 l 493 192 q 475 106 493 144 q 427 42 457 68 q 357 1 397 15 q 271 -14 317 -14 q 190 2 228 -14 q 125 47 153 18 q 81 113 97 75 q 64 192 64 150 z "},"Т":{"ha":493,"x_min":35,"x_max":458,"o":"m 35 972 l 458 972 l 458 806 l 331 806 l 331 0 l 164 0 l 164 806 l 35 806 l 35 972 z "},"Х":{"ha":614,"x_min":49,"x_max":565,"o":"m 222 972 q 264 851 243 911 q 304 731 285 792 q 383 972 346 851 l 556 972 q 470 735 511 853 q 386 496 429 617 q 475 248 431 371 q 565 0 519 125 l 392 0 q 348 128 369 64 q 304 256 326 192 q 263 128 283 192 q 221 0 242 64 l 49 0 q 137 244 94 122 q 224 489 179 367 q 136 731 179 611 q 49 972 93 850 l 222 972 z "},"Ј":{"ha":533,"x_min":43,"x_max":472,"o":"m 44 189 l 44 319 l 213 319 l 213 189 q 224 163 213 174 q 250 151 235 151 l 267 151 q 293 163 282 151 q 304 189 304 174 l 304 969 l 472 969 l 472 189 q 456 110 472 147 q 413 44 440 72 q 347 -1 385 15 q 267 -17 310 -17 l 250 -17 q 171 -1 208 -17 q 105 44 133 15 q 60 110 76 72 q 44 189 44 147 z "},"а":{"ha":588,"x_min":49,"x_max":539,"o":"m 49 0 l 153 972 l 436 972 l 539 0 l 372 0 l 340 319 l 247 319 l 217 0 l 49 0 m 324 486 l 294 822 l 264 486 l 324 486 z "},"б":{"ha":543,"x_min":63,"x_max":488,"o":"m 63 0 l 63 972 l 440 972 l 440 806 l 229 806 l 229 651 q 228 567 228 608 q 243 569 236 568 q 258 570 250 569 q 272 571 265 571 q 356 553 317 571 q 424 507 394 536 q 470 439 453 478 q 488 356 488 400 l 488 215 q 470 132 488 171 q 424 64 453 93 q 356 17 394 35 q 272 0 317 0 l 63 0 m 231 404 l 231 167 l 272 167 q 306 181 292 167 q 321 215 321 196 l 321 356 q 306 390 321 375 q 272 404 292 404 l 231 404 z "},"в":{"ha":528,"x_min":63,"x_max":479,"o":"m 63 971 l 264 972 q 347 955 308 972 q 415 908 386 938 q 461 840 444 879 q 478 757 478 801 l 479 661 q 467 567 479 613 q 419 486 456 522 l 419 485 q 469 400 458 449 q 479 301 479 351 l 479 247 q 422 67 479 135 q 247 0 364 0 l 63 0 l 63 971 m 251 163 q 301 181 289 163 q 314 236 314 199 l 313 314 q 307 360 313 343 q 290 384 301 376 q 263 393 279 392 q 226 394 247 394 l 225 394 l 225 163 l 251 163 m 251 576 q 292 586 271 576 q 313 622 313 596 l 313 747 q 297 797 313 785 q 244 810 281 810 l 225 810 l 225 576 l 251 576 z "},"г":{"ha":475,"x_min":63,"x_max":440,"o":"m 63 0 l 63 972 l 440 972 l 440 806 l 229 806 l 229 0 l 63 0 z "},"д":{"ha":706,"x_min":42,"x_max":664,"o":"m 103 165 q 148 213 136 179 q 161 279 160 247 l 199 971 l 594 971 l 594 165 l 664 165 l 664 -1 l 42 -1 l 42 165 l 103 165 m 293 165 l 442 165 l 442 817 l 343 817 l 314 269 q 293 165 311 215 z "},"е":{"ha":506,"x_min":63,"x_max":443,"o":"m 63 0 l 63 972 l 442 972 l 442 806 l 229 806 l 229 569 l 397 569 l 397 403 l 229 403 l 229 167 l 443 167 l 443 0 l 63 0 z "},"ж":{"ha":813,"x_min":49,"x_max":764,"o":"m 215 971 l 271 558 l 332 558 l 332 972 l 481 972 l 481 558 l 539 558 l 596 971 l 764 971 l 710 646 q 693 565 703 606 q 683 485 683 525 q 693 403 683 443 q 710 324 703 364 l 763 0 l 594 0 l 538 411 l 481 411 l 481 0 l 332 0 l 332 411 l 271 411 l 217 0 l 50 0 l 106 324 q 123 403 113 364 q 133 485 133 443 q 122 566 133 526 q 104 646 111 606 l 49 971 l 215 971 z "},"з":{"ha":531,"x_min":49,"x_max":468,"o":"m 49 211 l 50 275 l 210 275 q 209 240 210 261 q 213 198 208 218 q 227 164 217 178 q 257 150 238 150 q 301 196 301 150 l 300 347 q 279 397 300 389 q 228 406 258 406 l 211 406 l 211 565 q 276 575 251 565 q 300 633 300 585 l 301 776 q 288 811 300 800 q 256 822 275 822 q 225 808 235 822 q 212 775 215 794 q 209 735 208 756 q 210 699 210 714 l 50 699 l 49 738 q 62 831 49 786 q 101 911 75 876 q 167 966 128 946 q 260 986 207 986 q 351 966 313 986 q 417 911 390 946 q 456 833 443 876 q 468 740 468 789 q 466 673 468 707 q 457 606 464 639 q 435 542 450 572 q 397 486 421 511 q 436 431 422 461 q 457 368 450 401 q 466 301 464 335 q 468 233 468 267 q 455 140 468 185 q 416 60 442 94 q 351 6 390 26 q 257 -14 311 -14 q 170 4 208 -14 q 105 53 132 22 q 63 124 78 83 q 49 211 49 165 z "},"и":{"ha":550,"x_min":63,"x_max":488,"o":"m 63 0 l 63 972 l 210 972 l 210 494 l 339 972 l 488 972 l 488 0 l 339 0 l 339 476 l 211 0 l 63 0 z "},"к":{"ha":564,"x_min":63,"x_max":515,"o":"m 63 0 l 63 971 l 232 971 l 232 518 l 340 971 l 514 971 l 394 486 l 515 -1 l 342 -1 l 232 464 l 232 0 l 63 0 m 63 0 l 63 971 l 232 971 l 232 518 l 340 971 l 514 971 l 394 486 l 515 -1 l 342 -1 l 232 464 l 232 0 l 63 0 z "},"л":{"ha":633,"x_min":49,"x_max":571,"o":"m 49 143 q 89 161 72 147 q 116 194 106 175 q 131 236 126 214 q 138 279 136 258 l 174 969 l 571 969 l 571 0 l 418 0 l 418 817 l 319 817 l 290 268 q 272 173 288 219 q 230 89 257 126 q 164 25 203 51 q 74 -10 125 -1 l 49 143 z "},"м":{"ha":647,"x_min":63,"x_max":585,"o":"m 210 972 l 213 971 l 325 603 l 436 969 l 436 972 l 585 972 l 585 0 l 436 0 l 436 546 l 368 321 l 283 321 l 210 557 l 210 0 l 63 0 l 63 972 l 210 972 z "},"н":{"ha":551,"x_min":64,"x_max":488,"o":"m 231 972 l 231 571 l 321 571 l 321 972 l 488 972 l 488 0 l 321 0 l 321 404 l 231 404 l 231 0 l 64 0 l 64 972 l 231 972 z "},"о":{"ha":556,"x_min":64,"x_max":492,"o":"m 274 986 q 358 969 318 986 q 427 922 397 951 q 474 852 457 892 q 492 768 492 813 l 492 204 q 474 120 492 160 q 427 51 457 81 q 358 3 397 21 q 274 -14 318 -14 q 192 3 231 -14 q 126 49 154 19 q 81 116 97 78 q 64 197 64 154 l 64 775 q 81 856 64 818 q 126 924 97 894 q 192 969 154 953 q 274 986 231 986 m 274 154 q 308 169 293 154 q 324 204 324 185 l 324 768 q 308 803 324 788 q 274 818 293 818 q 244 805 257 818 q 232 775 232 792 l 232 197 q 244 167 232 181 q 274 154 257 154 z "},"п":{"ha":551,"x_min":63,"x_max":489,"o":"m 489 972 l 489 0 l 322 0 l 322 806 l 229 806 l 229 0 l 63 0 l 63 972 l 489 972 z "},"р":{"ha":531,"x_min":63,"x_max":489,"o":"m 63 972 l 274 972 q 357 955 318 972 q 425 908 396 938 q 472 840 454 879 q 489 757 489 801 l 489 618 q 472 535 489 574 q 425 467 454 496 q 357 420 396 438 q 274 403 318 403 l 229 403 l 229 0 l 63 0 l 63 972 m 229 569 l 274 569 q 308 584 293 569 q 322 618 322 599 l 322 757 q 308 791 322 776 q 274 806 293 806 l 229 806 l 229 569 z "},"с":{"ha":542,"x_min":64,"x_max":493,"o":"m 64 192 l 64 779 q 82 865 64 826 q 130 930 100 903 q 200 972 160 957 q 286 986 240 986 q 367 969 329 986 q 433 925 404 953 q 477 859 461 897 q 493 779 493 821 l 493 651 l 325 651 l 325 779 q 308 810 325 803 q 271 817 290 817 q 244 806 256 817 q 232 779 232 794 l 232 192 q 249 161 232 168 q 286 154 267 154 q 313 165 301 154 q 325 192 325 176 l 325 322 l 493 322 l 493 192 q 475 106 493 144 q 427 42 457 68 q 357 1 397 15 q 271 -14 317 -14 q 190 2 228 -14 q 125 47 153 18 q 81 113 97 75 q 64 192 64 150 z "},"т":{"ha":493,"x_min":35,"x_max":458,"o":"m 35 972 l 458 972 l 458 806 l 331 806 l 331 0 l 164 0 l 164 806 l 35 806 l 35 972 z "},"у":{"ha":556,"x_min":35,"x_max":535,"o":"m 204 972 l 283 644 l 363 972 l 535 972 l 358 250 q 318 138 343 186 q 257 59 293 90 q 170 11 221 28 q 53 -7 119 -6 l 46 160 q 124 174 96 160 q 169 212 153 188 q 194 270 186 236 q 211 344 203 304 l 35 972 l 204 972 z "},"ф":{"ha":788,"x_min":63,"x_max":725,"o":"m 63 586 q 63 634 63 610 q 65 682 63 658 q 136 832 74 776 q 293 888 199 888 l 311 886 l 311 986 l 478 986 l 478 886 l 508 886 q 592 869 553 886 q 661 822 632 851 q 708 754 690 793 q 725 669 725 715 l 725 407 q 721 292 725 350 q 699 206 717 244 q 650 142 681 168 q 579 101 619 115 q 492 88 539 88 l 478 88 l 478 -14 l 311 -14 l 311 86 q 298 85 304 86 q 285 85 292 85 q 267 85 276 85 q 250 88 258 86 q 177 113 211 93 q 118 161 143 132 q 78 228 93 190 q 64 304 64 265 q 63 445 64 375 q 63 586 63 515 m 233 333 q 235 295 233 313 q 243 265 236 278 q 263 246 250 253 q 301 239 276 239 l 311 240 l 311 732 q 255 722 276 732 q 233 672 233 711 q 235 561 233 617 q 238 450 238 506 q 235 392 238 421 q 233 333 233 363 m 478 240 q 534 251 513 240 q 556 301 556 263 q 553 424 556 364 q 551 547 551 485 q 553 591 551 569 q 554 636 554 613 q 553 675 554 657 q 545 706 551 693 q 524 727 539 719 q 485 735 510 735 l 478 735 l 478 240 z "},"х":{"ha":614,"x_min":49,"x_max":565,"o":"m 222 972 q 264 851 243 911 q 304 731 285 792 q 383 972 346 851 l 556 972 q 470 735 511 853 q 386 496 429 617 q 475 248 431 371 q 565 0 519 125 l 392 0 q 348 128 369 64 q 304 256 326 192 q 263 128 283 192 q 221 0 242 64 l 49 0 q 137 244 94 122 q 224 489 179 367 q 136 731 179 611 q 49 972 93 850 l 222 972 z "},"ц":{"ha":631,"x_min":63,"x_max":589,"o":"m 63 972 l 229 972 l 229 167 l 319 167 l 319 972 l 486 972 l 486 167 l 589 167 l 589 0 l 63 0 l 63 972 z "},"ч":{"ha":558,"x_min":49,"x_max":496,"o":"m 49 618 l 49 972 l 215 972 l 215 618 q 230 583 215 599 q 264 568 244 568 l 329 568 l 329 972 l 496 972 l 496 0 l 329 0 l 329 403 l 264 403 q 181 420 219 403 q 113 467 142 438 q 66 535 83 496 q 49 618 49 574 z "},"ш":{"ha":647,"x_min":63,"x_max":585,"o":"m 63 0 l 63 972 l 210 972 l 210 149 l 250 149 l 250 972 l 397 972 l 397 149 l 436 149 l 436 972 l 585 972 l 585 0 l 63 0 z "},"Ѕ":{"ha":514,"x_min":42,"x_max":472,"o":"m 261 986 q 344 969 306 986 q 410 924 382 953 q 456 858 439 896 q 472 775 472 819 l 472 726 l 303 726 q 302 760 303 743 q 297 789 301 776 q 282 810 292 801 q 253 818 272 818 q 219 797 226 818 q 211 754 211 775 q 231 665 211 706 q 279 588 250 625 q 342 515 308 551 q 404 435 375 478 q 453 342 433 393 q 472 225 472 290 q 457 134 472 178 q 413 58 442 90 q 344 6 385 25 q 253 -14 303 -14 q 171 3 210 -14 q 104 49 132 19 q 60 116 76 78 q 43 197 43 154 l 43 247 l 211 247 q 210 219 211 235 q 213 188 210 203 q 226 164 217 174 q 253 154 235 154 q 290 174 276 154 q 304 215 304 193 q 285 303 304 264 q 236 380 265 343 q 173 455 207 417 q 110 537 139 493 q 61 635 81 581 q 42 757 42 689 q 58 847 42 806 q 102 920 74 889 q 171 969 131 951 q 261 986 211 986 z "},"џ":{"ha":551,"x_min":63,"x_max":489,"o":"m 63 1 l 63 972 l 231 972 l 231 171 l 321 171 l 321 972 l 489 972 l 489 1 l 360 1 l 360 -69 l 193 -69 l 193 1 l 63 1 z "},"љ":{"ha":894,"x_min":49,"x_max":832,"o":"m 138 279 l 174 969 l 571 969 l 571 543 q 602 545 586 544 q 635 546 618 546 q 720 528 683 546 q 781 479 757 510 q 818 408 806 449 q 831 322 831 367 q 831 285 831 303 q 832 247 832 267 q 831 209 832 228 q 826 171 829 190 q 801 102 821 133 q 753 48 782 71 q 691 13 725 25 q 619 0 657 0 l 418 0 l 418 817 l 319 817 l 290 269 q 273 173 288 219 q 232 89 258 126 q 166 26 206 51 q 74 -10 126 0 l 49 143 q 90 160 74 147 q 116 193 106 174 q 131 235 126 213 q 138 279 136 258 m 571 406 l 571 153 l 601 153 q 644 160 629 153 q 667 180 660 167 q 675 212 674 193 q 676 253 676 231 q 676 292 676 272 q 675 332 675 313 q 656 392 675 379 q 593 406 636 406 l 571 406 z "},"њ":{"ha":811,"x_min":63,"x_max":763,"o":"m 63 972 l 229 972 l 229 571 l 319 571 l 319 972 l 486 972 l 486 565 q 508 569 497 568 q 531 571 519 571 q 620 552 578 571 q 694 502 663 533 q 744 428 725 471 q 763 339 763 386 l 763 232 q 744 142 763 185 q 694 69 725 100 q 620 19 663 38 q 531 0 578 0 l 321 0 l 321 404 l 229 404 l 229 0 l 63 0 l 63 972 m 488 167 l 531 167 q 576 186 557 167 q 596 232 596 206 l 596 339 q 576 385 596 365 q 531 404 557 404 l 488 404 l 488 167 z "},"ј":{"ha":535,"x_min":43,"x_max":472,"o":"m 44 189 l 44 319 l 213 319 l 213 189 q 224 163 213 174 q 250 151 235 151 l 267 151 q 293 163 282 151 q 304 189 304 174 l 304 969 l 472 969 l 472 189 q 456 110 472 147 q 413 44 440 72 q 347 -1 385 15 q 267 -17 310 -17 l 250 -17 q 171 -1 208 -17 q 105 44 133 15 q 60 110 76 72 q 44 189 44 147 z "},"ѕ":{"ha":514,"x_min":42,"x_max":472,"o":"m 261 986 q 344 969 306 986 q 410 924 382 953 q 456 858 439 896 q 472 775 472 819 l 472 726 l 303 726 q 302 760 303 743 q 297 789 301 776 q 282 810 292 801 q 253 818 272 818 q 219 797 226 818 q 211 754 211 775 q 231 665 211 706 q 279 588 250 625 q 342 515 308 551 q 404 435 375 478 q 453 342 433 393 q 472 225 472 290 q 457 134 472 178 q 413 58 442 90 q 344 6 385 25 q 253 -14 303 -14 q 171 3 210 -14 q 104 49 132 19 q 60 116 76 78 q 43 197 43 154 l 43 247 l 211 247 q 210 219 211 235 q 213 188 210 203 q 226 164 217 174 q 253 154 235 154 q 290 174 276 154 q 304 215 304 193 q 285 303 304 264 q 236 380 265 343 q 173 455 207 417 q 110 537 139 493 q 61 635 81 581 q 42 757 42 689 q 58 847 42 806 q 102 920 74 889 q 171 969 131 951 q 261 986 211 986 z "},"ѓ":{"ha":475,"x_min":63,"x_max":440,"o":"m 63 0 l 63 972 l 440 972 l 440 806 l 229 806 l 229 0 l 63 0 m 243 1176 l 356 1176 l 267 1028 l 182 1028 l 243 1176 z "},"І":{"ha":292,"x_min":63,"x_max":229,"o":"m 63 971 l 229 971 l 229 0 l 63 0 l 63 971 z "},"Ї":{"ha":292,"x_min":10,"x_max":281,"o":"m 63 971 l 229 971 l 229 0 l 63 0 l 63 971 m 10 1140 l 124 1142 l 125 1028 l 11 1028 l 10 1140 m 167 1142 l 281 1143 l 281 1029 l 168 1028 l 167 1142 z "},"Я":{"ha":538,"x_min":49,"x_max":482,"o":"m 315 569 l 308 569 l 281 569 q 246 576 261 569 q 224 606 231 582 q 222 635 221 621 q 222 686 224 650 q 222 747 224 726 q 231 785 219 768 q 253 802 239 799 q 283 806 268 806 l 307 806 l 315 806 l 315 569 m 482 972 l 271 972 q 188 955 226 972 q 119 908 149 938 q 73 840 90 879 q 56 757 56 801 l 56 618 q 73 533 56 572 q 121 463 90 493 q 88 412 100 440 q 72 353 75 383 q 67 259 67 304 q 69 164 68 214 q 67 82 69 125 q 50 3 65 39 q 49 1 50 1 l 215 1 q 228 90 225 44 q 231 222 231 157 q 232 354 232 288 q 241 383 232 371 q 265 403 250 396 l 315 403 l 315 0 l 482 0 l 482 972 z "},"я":{"ha":538,"x_min":49,"x_max":482,"o":"m 315 569 l 308 569 l 281 569 q 246 576 261 569 q 224 606 231 582 q 222 635 221 621 q 222 686 224 650 q 222 747 224 726 q 231 785 219 768 q 253 802 239 799 q 283 806 268 806 l 307 806 l 315 806 l 315 569 m 482 972 l 271 972 q 188 955 226 972 q 119 908 149 938 q 73 840 90 879 q 56 757 56 801 l 56 618 q 73 533 56 572 q 121 463 90 493 q 88 412 100 440 q 72 353 75 383 q 67 259 67 304 q 69 164 68 214 q 67 82 69 125 q 50 3 65 39 q 49 1 50 1 l 215 1 q 228 90 225 44 q 231 222 231 157 q 232 354 232 288 q 241 383 232 371 q 265 403 250 396 l 315 403 l 315 0 l 482 0 l 482 972 z "},"ї":{"ha":292,"x_min":10,"x_max":281,"o":"m 63 971 l 229 971 l 229 0 l 63 0 l 63 971 m 10 1140 l 124 1142 l 125 1028 l 11 1028 l 10 1140 m 167 1142 l 281 1143 l 281 1029 l 168 1028 l 167 1142 z "},"і":{"ha":292,"x_min":63,"x_max":229,"o":"m 63 971 l 229 971 l 229 0 l 63 0 l 63 971 z "},"Ѝ":{"ha":550,"x_min":63,"x_max":488,"o":"m 63 972 l 210 972 l 210 494 l 339 972 l 488 972 l 488 0 l 339 0 l 339 476 l 211 0 l 63 0 l 63 972 m 279 1176 l 340 1028 l 256 1028 l 167 1176 l 279 1176 z "},"Ѐ":{"ha":506,"x_min":63,"x_max":443,"o":"m 63 0 l 63 972 l 442 972 l 442 806 l 229 806 l 229 569 l 397 569 l 397 403 l 229 403 l 229 167 l 443 167 l 443 0 l 63 0 m 194 1028 l 256 1176 l 368 1176 l 279 1028 l 194 1028 z "},"ѐ":{"ha":506,"x_min":63,"x_max":443,"o":"m 63 0 l 63 972 l 442 972 l 442 806 l 229 806 l 229 569 l 397 569 l 397 403 l 229 403 l 229 167 l 443 167 l 443 0 l 63 0 m 194 1028 l 256 1176 l 368 1176 l 279 1028 l 194 1028 z "},"ѝ":{"ha":550,"x_min":63,"x_max":488,"o":"m 63 972 l 210 972 l 210 494 l 339 972 l 488 972 l 488 0 l 339 0 l 339 476 l 211 0 l 63 0 l 63 972 m 279 1176 l 340 1028 l 256 1028 l 167 1176 l 279 1176 z "},"¡":{"ha":322,"x_min":63,"x_max":263,"o":"m 69 -264 l 256 -264 q 261 108 263 -78 q 242 483 260 294 l 82 483 q 64 108 65 294 q 69 -264 63 -78 m 78 540 l 246 540 l 246 708 l 78 708 l 78 540 z "},"¿":{"ha":557,"x_min":61,"x_max":494,"o":"m 68 -115 q 95 -181 76 -151 q 142 -233 114 -211 q 203 -266 169 -254 q 276 -278 238 -278 q 365 -259 325 -278 q 433 -209 404 -240 q 478 -135 463 -178 q 494 -47 494 -93 q 472 79 494 22 q 420 186 449 135 q 369 287 392 238 q 346 393 346 336 q 361 479 346 435 l 186 479 q 172 385 172 436 q 182 301 172 340 q 206 229 192 261 q 233 172 219 196 q 256 133 247 147 q 288 77 275 101 q 310 31 301 53 q 322 -10 318 10 q 325 -53 325 -31 q 310 -95 325 -82 q 278 -108 296 -108 q 245 -96 258 -108 q 232 -58 232 -83 l 232 43 l 64 43 q 64 14 64 28 q 63 -12 63 1 q 63 -35 63 -25 q 63 -72 63 -53 q 68 -115 63 -92 m 196 708 l 196 540 l 364 540 l 364 708 l 196 708 z "},"+":{"ha":485,"x_min":63,"x_max":422,"o":"m 63 429 l 63 544 l 185 544 l 185 667 l 300 667 l 300 544 l 422 544 l 422 429 l 300 429 l 300 307 l 185 307 l 185 429 l 63 429 z "},")":{"ha":365,"x_min":63,"x_max":289,"o":"m 289 808 q 272 899 289 857 q 227 973 256 942 q 160 1023 199 1004 q 79 1042 122 1042 l 63 1042 l 63 917 q 119 899 103 917 q 135 854 135 882 l 135 118 q 119 73 135 90 q 63 56 103 56 l 63 -69 l 79 -69 q 160 -51 122 -69 q 227 -1 199 -33 q 272 73 256 31 q 289 164 289 115 l 289 808 z "},"{":{"ha":451,"x_min":63,"x_max":375,"o":"m 63 489 l 63 550 q 106 558 86 551 q 135 581 122 565 q 149 625 149 597 l 149 808 q 165 899 149 857 q 210 973 182 942 q 277 1023 239 1004 q 358 1042 315 1042 l 375 1042 l 375 917 q 319 899 335 917 q 303 854 303 882 l 303 617 q 297 576 303 597 q 276 538 290 556 q 241 506 263 519 q 188 486 219 492 q 241 467 219 481 q 276 435 263 453 q 297 396 290 417 q 303 356 303 375 l 303 118 q 319 73 303 90 q 375 56 335 56 l 375 -69 l 358 -69 q 277 -51 315 -69 q 210 -1 239 -32 q 165 74 182 31 q 149 164 149 117 l 149 347 q 138 385 147 368 q 113 412 131 400 q 63 422 94 424 l 63 489 z "},"}":{"ha":451,"x_min":76,"x_max":389,"o":"m 389 489 l 389 550 q 346 558 365 551 q 316 581 329 565 q 303 625 303 597 l 303 808 q 286 899 303 857 q 241 973 269 942 q 174 1023 213 1004 q 93 1042 136 1042 l 76 1042 l 76 917 q 133 899 117 917 q 149 854 149 882 l 149 617 q 155 576 149 597 q 175 538 161 556 q 210 506 189 519 q 264 486 232 492 q 210 467 232 481 q 175 435 189 453 q 155 396 161 417 q 149 356 149 375 l 149 118 q 133 73 149 90 q 76 56 117 56 l 76 -69 l 93 -69 q 174 -51 136 -69 q 241 -1 213 -32 q 286 74 269 31 q 303 164 303 117 l 303 347 q 314 385 304 368 q 339 412 321 400 q 389 422 357 424 l 389 489 z "},"[":{"ha":433,"x_min":63,"x_max":357,"o":"m 63 -74 l 63 1039 l 357 1039 l 357 886 l 229 886 l 229 79 l 357 79 l 357 -74 l 63 -74 z "},"]":{"ha":433,"x_min":76,"x_max":371,"o":"m 371 -74 l 371 1039 l 76 1039 l 76 886 l 204 886 l 204 79 l 76 79 l 76 -74 l 371 -74 z "},"$":{"ha":500,"x_min":35,"x_max":465,"o":"m 157 965 l 157 1042 l 324 1042 l 324 975 q 426 899 386 953 q 465 775 465 844 l 465 726 l 296 726 q 295 760 296 743 q 290 789 294 776 q 275 810 285 801 q 246 818 265 818 q 212 797 219 818 q 204 754 204 775 q 224 665 204 706 q 272 588 243 625 q 335 515 301 551 q 397 435 368 478 q 446 342 426 393 q 465 225 465 290 q 428 87 465 149 q 324 0 390 25 l 324 -71 l 157 -71 l 157 6 q 69 83 103 32 q 36 197 36 135 l 36 247 l 204 247 q 203 219 204 235 q 206 188 203 203 q 219 164 210 174 q 246 154 228 154 q 283 174 269 154 q 297 215 297 193 q 278 303 297 264 q 229 380 258 343 q 166 455 200 417 q 103 537 132 493 q 54 635 74 581 q 35 757 35 689 q 67 883 35 828 q 157 965 99 938 z "},"*":{"ha":503,"x_min":56,"x_max":447,"o":"m 150 821 l 56 853 l 94 971 l 189 940 l 188 1039 l 313 1040 l 314 939 l 410 969 l 447 850 l 353 821 l 411 739 l 310 667 l 251 747 l 192 667 l 92 742 l 150 821 z "},"^":{"ha":503,"x_min":56,"x_max":447,"o":"m 56 617 l 186 986 l 317 986 l 447 617 l 318 617 l 251 803 l 186 617 l 56 617 z "},"˜":{"ha":547,"x_min":56,"x_max":492,"o":"m 160 832 l 56 869 q 79 913 64 893 q 115 949 94 933 q 160 972 136 964 q 208 981 183 981 q 273 969 250 981 q 311 946 296 957 q 325 937 321 939 q 340 935 329 935 q 359 941 351 935 q 373 956 367 947 q 383 972 379 964 q 388 981 386 979 l 386 981 l 388 981 l 388 981 l 492 944 q 484 925 492 942 q 461 888 476 908 q 340 824 413 824 q 281 835 303 824 q 246 856 260 846 q 229 866 235 863 q 208 869 224 869 q 179 858 193 869 q 160 832 165 847 z "},"=":{"ha":471,"x_min":56,"x_max":415,"o":"m 56 315 l 415 315 l 415 199 l 56 199 l 56 315 m 415 117 l 415 0 l 56 0 l 56 117 l 415 117 z "},"<":{"ha":481,"x_min":56,"x_max":425,"o":"m 56 419 l 56 550 l 425 681 l 425 551 l 240 485 l 425 419 l 425 289 l 56 419 z "},">":{"ha":481,"x_min":56,"x_max":425,"o":"m 425 419 l 425 550 l 56 681 l 56 551 l 240 485 l 56 419 l 56 289 l 425 419 z "},"%":{"ha":754,"x_min":63,"x_max":692,"o":"m 210 989 q 267 977 240 989 q 313 945 293 965 q 344 899 333 925 q 356 842 356 872 l 356 681 q 344 624 356 650 q 313 577 333 597 q 267 545 293 557 q 210 533 240 533 q 152 545 179 533 q 106 577 125 557 q 74 624 86 597 q 63 681 63 650 l 63 842 q 74 899 63 872 q 106 945 86 925 q 152 977 125 965 q 210 989 179 989 m 544 438 q 602 426 575 438 q 649 395 629 415 q 680 349 668 375 q 692 292 692 322 l 692 131 q 649 26 692 68 q 544 -17 607 -17 q 488 -5 514 -17 q 442 26 461 7 q 410 73 422 46 q 399 131 399 100 l 399 292 q 410 349 399 322 q 442 395 422 375 q 488 426 461 415 q 544 438 514 438 m 126 0 l 499 972 l 622 972 l 251 0 l 126 0 m 188 681 q 210 658 188 658 q 224 665 218 658 q 231 681 231 671 l 231 842 q 224 857 231 850 q 210 864 218 864 q 194 857 200 864 q 188 842 188 850 l 188 681 m 544 108 q 567 131 567 108 l 567 292 q 560 306 567 300 q 544 313 554 313 q 530 306 536 313 q 524 292 524 300 l 524 131 q 530 115 524 121 q 544 108 536 108 z "},"&":{"ha":768,"x_min":63,"x_max":726,"o":"m 165 482 q 84 617 106 549 q 63 776 63 686 q 79 858 63 819 q 125 925 96 896 q 192 971 154 954 q 274 988 231 988 q 356 971 318 988 q 422 926 393 954 q 467 859 450 897 q 485 778 483 821 q 480 685 488 728 q 458 606 472 642 q 426 540 444 571 q 388 485 407 510 q 390 480 389 482 q 393 475 392 478 l 474 361 q 487 424 482 392 q 492 488 492 456 l 658 488 q 640 338 658 413 q 588 199 622 264 l 726 1 l 522 1 l 479 63 q 384 4 438 25 q 274 -17 331 -17 q 189 1 228 -17 q 122 50 150 19 q 78 121 94 81 q 63 206 63 161 l 63 207 q 90 354 63 289 q 165 482 117 419 m 229 197 q 242 165 231 181 q 274 150 254 150 q 335 165 307 150 q 383 200 363 181 l 276 351 q 265 336 269 344 q 257 321 261 328 q 234 263 242 293 q 229 197 226 233 m 274 613 q 308 683 296 644 q 318 774 321 721 q 306 806 318 790 q 274 821 293 821 q 242 806 254 821 q 229 776 229 792 q 237 690 229 725 q 274 613 244 654 z "},"−":{"ha":471,"x_min":56,"x_max":415,"o":"m 56 546 l 415 546 l 415 429 l 56 429 l 56 546 z "},"±":{"ha":475,"x_min":56,"x_max":419,"o":"m 56 650 l 178 650 l 178 772 l 293 772 l 293 650 l 415 650 l 415 535 l 293 535 l 293 413 l 178 413 l 178 535 l 56 535 l 56 650 m 419 328 l 419 211 l 60 211 l 60 328 l 419 328 z "},"×":{"ha":447,"x_min":54,"x_max":392,"o":"m 743 259 l 825 341 l 911 254 l 998 341 l 1079 259 l 993 173 l 1079 86 l 998 5 l 911 91 l 825 5 l 743 86 l 830 173 l 743 259 z "},"÷":{"ha":551,"x_min":56,"x_max":496,"o":"m 56 429 l 56 546 l 496 546 l 496 429 l 56 429 m 333 703 l 333 586 l 217 586 l 217 703 l 333 703 m 217 274 l 217 390 l 333 390 l 333 274 l 217 274 z "},"‘":{"ha":265,"x_min":132,"x_max":300,"o":"m 231 968 l 300 968 l 300 800 l 132 800 l 132 968 l 217 1063 l 263 1063 l 231 968 z "},"‚":{"ha":244,"x_min":56,"x_max":224,"o":"m 125 -167 l 56 -167 l 56 1 l 224 1 l 224 -167 l 139 -261 l 93 -261 l 125 -167 z "},"„":{"ha":444,"x_min":35,"x_max":410,"o":"m 35 -169 l 35 -1 l 203 -1 l 203 -169 l 118 -264 l 72 -264 l 104 -169 l 35 -169 m 242 -1 l 410 -1 l 410 -169 l 325 -264 l 281 -264 l 311 -169 l 242 -169 l 242 -1 z "},"’":{"ha":244,"x_min":21,"x_max":189,"o":"m 90 888 l 21 888 l 21 1056 l 189 1056 l 189 888 l 104 793 l 58 793 l 90 888 z "},"'":{"ha":244,"x_min":21,"x_max":189,"o":"m 90 888 l 21 888 l 21 1056 l 189 1056 l 189 888 l 104 793 l 58 793 l 90 888 z "},"”":{"ha":451,"x_min":21,"x_max":396,"o":"m 21 818 l 21 986 l 189 986 l 189 818 l 104 724 l 58 724 l 90 818 l 21 818 m 228 986 l 396 986 l 396 818 l 311 724 l 267 724 l 297 818 l 228 818 l 228 986 z "},"“":{"ha":417,"x_min":21,"x_max":396,"o":"m 396 972 l 396 804 l 228 804 l 228 972 l 313 1067 l 358 1067 l 326 972 l 396 972 m 189 804 l 21 804 l 21 972 l 106 1067 l 150 1067 l 119 972 l 189 972 l 189 804 z "},"ќ":{"ha":564,"x_min":63,"x_max":515,"o":"z "},"ў":{"ha":556,"x_min":35,"x_max":535,"o":"m 204 972 l 283 644 l 363 972 l 535 972 l 358 250 q 318 138 343 186 q 257 59 293 90 q 170 11 221 28 q 53 -7 119 -6 l 46 160 q 124 174 96 160 q 169 212 153 188 q 194 270 186 236 q 211 344 203 304 l 35 972 l 204 972 m 124 1179 l 242 1179 q 253 1149 242 1161 q 283 1138 265 1138 q 313 1149 300 1138 q 325 1179 325 1161 l 443 1179 q 431 1117 443 1146 q 396 1067 418 1089 q 345 1032 374 1044 q 283 1019 317 1019 q 222 1032 250 1019 q 171 1067 193 1044 q 136 1117 149 1089 q 124 1179 124 1146 z "},"Й":{"ha":550,"x_min":63,"x_max":488,"o":"m 210 972 l 210 494 l 339 972 l 488 972 l 488 0 l 339 0 l 339 476 l 211 0 l 63 0 l 63 972 l 210 972 m 242 1188 q 253 1158 242 1169 q 283 1146 265 1146 q 313 1158 300 1146 q 325 1188 325 1169 l 443 1188 q 431 1125 443 1154 q 396 1074 418 1096 q 345 1040 374 1053 q 283 1028 317 1028 q 221 1040 250 1028 q 170 1074 192 1053 q 136 1125 149 1096 q 124 1188 124 1154 l 242 1188 z "},"Ё":{"ha":506,"x_min":63,"x_max":443,"o":"m 63 972 l 442 972 l 442 806 l 229 806 l 229 569 l 397 569 l 397 403 l 229 403 l 229 167 l 443 167 l 443 0 l 63 0 l 63 972 m 281 1028 l 281 1142 l 394 1142 l 394 1028 l 281 1028 m 238 1142 l 238 1028 l 124 1028 l 124 1142 l 238 1142 z "},"@":{"ha":861,"x_min":56,"x_max":806,"o":"m 428 986 q 571 959 503 986 q 691 884 639 932 q 774 771 743 836 q 806 628 806 706 l 806 349 q 794 281 806 313 q 760 224 782 249 q 708 185 739 200 q 640 171 678 171 q 535 213 578 171 q 485 315 492 254 q 475 298 481 307 q 460 282 469 289 q 435 270 450 275 q 399 265 421 265 q 331 281 361 265 q 278 324 300 297 q 245 383 257 350 q 233 451 233 417 l 233 597 q 247 663 233 631 q 283 718 260 694 q 335 756 306 742 q 400 771 365 771 q 453 758 424 771 q 493 722 482 744 l 493 778 l 610 778 l 610 324 q 619 304 610 313 q 640 296 629 296 q 672 313 663 296 q 681 349 681 329 l 681 628 q 660 719 681 676 q 604 794 639 763 q 525 843 569 825 q 433 861 481 861 q 340 844 385 861 q 259 795 294 826 q 202 722 224 764 q 181 628 181 679 l 181 349 q 199 257 181 300 q 248 182 217 214 q 322 132 279 150 q 414 114 365 114 q 569 125 496 114 q 717 172 642 136 l 717 35 q 699 31 717 38 q 645 14 681 24 q 559 -3 610 4 q 443 -11 508 -11 l 415 -11 q 275 17 340 -11 q 160 94 210 44 q 83 208 111 143 q 56 349 56 274 l 56 628 q 86 768 56 703 q 168 882 117 833 q 287 958 219 931 q 428 986 354 986 m 419 383 q 463 397 449 383 q 484 432 478 411 q 490 476 490 453 q 490 519 490 500 l 490 586 q 470 638 490 615 q 419 660 450 660 q 368 638 389 660 q 347 586 347 617 l 347 519 q 348 475 347 499 q 355 431 349 451 q 376 397 361 411 q 419 383 390 383 z "},"~":{"ha":547,"x_min":56,"x_max":492,"o":"m 160 406 l 56 443 q 79 487 64 467 q 115 522 94 507 q 160 546 136 538 q 208 554 183 554 q 258 547 238 554 q 292 531 278 540 q 318 515 307 522 q 340 508 329 508 q 369 524 357 508 q 388 554 382 540 l 386 554 l 388 554 l 388 554 l 492 518 q 434 433 475 469 q 340 397 393 397 q 294 404 313 397 q 261 420 275 411 q 235 436 247 429 q 208 443 224 443 q 178 432 192 443 q 160 406 165 421 z "},"`":{"ha":285,"x_min":56,"x_max":229,"o":"m 144 1000 l 56 1149 l 168 1149 l 229 1000 l 144 1000 z "},"´":{"ha":285,"x_min":56,"x_max":229,"o":"m 117 1149 l 229 1149 l 140 1000 l 56 1000 l 117 1149 z "},"˝":{"ha":451,"x_min":21,"x_max":396,"o":"m 21 818 l 21 986 l 189 986 l 189 818 l 104 724 l 58 724 l 90 818 l 21 818 m 228 986 l 396 986 l 396 818 l 311 724 l 267 724 l 297 818 l 228 818 l 228 986 z "},"•":{"ha":317,"x_min":56,"x_max":261,"o":"m 56 486 q 85 559 56 529 q 158 589 115 589 q 231 559 201 589 q 261 486 261 529 q 231 413 261 443 q 158 383 201 383 q 85 413 115 383 q 56 486 56 443 z "},"·":{"ha":279,"x_min":56,"x_max":224,"o":"m 56 575 l 224 575 l 224 407 l 56 407 l 56 575 z "},"‹":{"ha":481,"x_min":56,"x_max":425,"o":"m 56 421 l 56 551 l 425 682 l 425 553 l 240 486 l 425 421 l 425 290 l 56 421 z "},"›":{"ha":481,"x_min":56,"x_max":425,"o":"m 425 421 l 425 551 l 56 682 l 56 553 l 240 486 l 56 421 l 56 290 l 425 421 z "},"«":{"ha":876,"x_min":56,"x_max":821,"o":"m 451 421 l 451 551 l 821 682 l 821 553 l 636 486 l 821 421 l 821 290 l 451 421 m 56 421 l 56 551 l 425 682 l 425 553 l 240 486 l 425 421 l 425 290 l 56 421 z "},"»":{"ha":876,"x_min":56,"x_max":821,"o":"m 425 421 l 425 551 l 56 682 l 56 553 l 240 486 l 56 421 l 56 290 l 425 421 m 821 421 l 821 551 l 451 682 l 451 553 l 636 486 l 451 421 l 451 290 l 821 421 z "},"È":{"ha":506,"x_min":63,"x_max":443,"o":"m 63 0 l 63 972 l 442 972 l 442 806 l 229 806 l 229 569 l 397 569 l 397 403 l 229 403 l 229 167 l 443 167 l 443 0 l 63 0 m 240 1028 l 151 1176 l 264 1176 l 325 1028 l 240 1028 z "},"É":{"ha":506,"x_min":63,"x_max":443,"o":"m 63 0 l 63 972 l 442 972 l 442 806 l 229 806 l 229 569 l 397 569 l 397 403 l 229 403 l 229 167 l 443 167 l 443 0 l 63 0 m 257 1176 l 369 1176 l 281 1028 l 196 1028 l 257 1176 z "},"ˆ":{"ha":442,"x_min":56,"x_max":386,"o":"m 56 1000 l 156 1143 l 285 1143 l 386 1000 l 257 1000 l 221 1051 l 183 1000 l 56 1000 z "},"ˇ":{"ha":442,"x_min":56,"x_max":386,"o":"m 56 1143 l 156 1000 l 285 1000 l 386 1143 l 257 1143 l 221 1092 l 183 1143 l 56 1143 z "},"Ê":{"ha":506,"x_min":63,"x_max":443,"o":"m 63 0 l 63 972 l 442 972 l 442 806 l 229 806 l 229 569 l 397 569 l 397 403 l 229 403 l 229 167 l 443 167 l 443 0 l 63 0 m 88 1028 l 188 1171 l 317 1171 l 418 1028 l 289 1028 l 253 1079 l 215 1028 l 88 1028 z "},"¨":{"ha":382,"x_min":57,"x_max":325,"o":"m 57 1115 l 169 1115 l 169 1001 l 57 1001 l 57 1115 m 213 1001 l 213 1115 l 325 1115 l 325 1001 l 213 1001 z "},"Ë":{"ha":506,"x_min":63,"x_max":443,"o":"m 63 0 l 63 972 l 442 972 l 442 806 l 229 806 l 229 569 l 397 569 l 397 403 l 229 403 l 229 167 l 443 167 l 443 0 l 63 0 m 121 1140 l 233 1140 l 233 1026 l 121 1026 l 121 1140 m 276 1026 l 276 1140 l 389 1140 l 389 1026 l 276 1026 z "},"è":{"ha":506,"x_min":63,"x_max":443,"o":"m 63 0 l 63 972 l 442 972 l 442 806 l 229 806 l 229 569 l 397 569 l 397 403 l 229 403 l 229 167 l 443 167 l 443 0 l 63 0 m 256 1028 l 167 1176 l 279 1176 l 340 1028 l 256 1028 z "},"é":{"ha":506,"x_min":63,"x_max":443,"o":"m 63 0 l 63 972 l 442 972 l 442 806 l 229 806 l 229 569 l 397 569 l 397 403 l 229 403 l 229 167 l 443 167 l 443 0 l 63 0 m 232 1176 l 344 1176 l 256 1028 l 171 1028 l 232 1176 z "},"ê":{"ha":506,"x_min":63,"x_max":443,"o":"m 63 0 l 63 972 l 442 972 l 442 806 l 229 806 l 229 569 l 397 569 l 397 403 l 229 403 l 229 167 l 443 167 l 443 0 l 63 0 m 88 1028 l 188 1171 l 317 1171 l 418 1028 l 289 1028 l 253 1079 l 215 1028 l 88 1028 z "},"ë":{"ha":506,"x_min":63,"x_max":443,"o":"m 63 0 l 63 972 l 442 972 l 442 806 l 229 806 l 229 569 l 397 569 l 397 403 l 229 403 l 229 167 l 443 167 l 443 0 l 63 0 m 119 1143 l 232 1143 l 232 1029 l 119 1029 l 119 1143 m 275 1029 l 275 1143 l 388 1143 l 388 1029 l 275 1029 z "},"ì":{"ha":292,"x_min":19,"x_max":229,"o":"m 63 971 l 229 971 l 229 0 l 63 0 l 63 971 m 108 1028 l 19 1176 l 132 1176 l 193 1028 l 108 1028 z "},"í":{"ha":292,"x_min":63,"x_max":278,"o":"m 63 971 l 229 971 l 229 0 l 63 0 l 63 971 m 165 1176 l 278 1176 l 189 1028 l 104 1028 l 165 1176 z "},"î":{"ha":292,"x_min":-19,"x_max":311,"o":"m 63 971 l 229 971 l 229 0 l 63 0 l 63 971 m -19 1028 l 81 1171 l 210 1171 l 311 1028 l 182 1028 l 146 1079 l 108 1028 l -19 1028 z "},"Ќ":{"ha":564,"x_min":63,"x_max":515,"o":"m 63 0 l 63 971 l 232 971 l 232 518 l 340 971 l 514 971 l 394 486 l 515 -1 l 342 -1 l 232 464 l 232 0 l 63 0 m 268 1175 l 381 1175 l 292 1026 l 207 1026 l 268 1175 z "},"й":{"ha":550,"x_min":63,"x_max":488,"o":"m 210 972 l 210 494 l 339 972 l 488 972 l 488 0 l 339 0 l 339 476 l 211 0 l 63 0 l 63 972 l 210 972 m 242 1188 q 253 1158 242 1169 q 283 1146 265 1146 q 313 1158 300 1146 q 325 1188 325 1169 l 443 1188 q 431 1125 443 1154 q 396 1074 418 1096 q 345 1040 374 1053 q 283 1028 317 1028 q 221 1040 250 1028 q 170 1074 192 1053 q 136 1125 149 1096 q 124 1188 124 1154 l 242 1188 z "},"ё":{"ha":506,"x_min":63,"x_max":443,"o":"m 63 0 l 63 972 l 442 972 l 442 806 l 229 806 l 229 569 l 397 569 l 397 403 l 229 403 l 229 167 l 443 167 l 443 0 l 63 0 m 121 1140 l 233 1140 l 233 1026 l 121 1026 l 121 1140 m 276 1026 l 276 1140 l 389 1140 l 389 1026 l 276 1026 z "},"–":{"ha":414,"x_min":56,"x_max":358,"o":"m 56 579 l 358 579 l 358 411 l 56 411 l 56 579 z "},"—":{"ha":625,"x_min":56,"x_max":569,"o":"m 56 540 l 569 540 l 569 424 l 56 424 l 56 540 z "},"¯":{"ha":583,"x_min":21,"x_max":535,"o":"m 21 1158 l 535 1158 l 535 1042 l 21 1042 l 21 1158 z "},"¬":{"ha":581,"x_min":56,"x_max":525,"o":"m 56 543 l 525 543 l 525 304 l 408 304 l 408 428 l 56 428 l 56 543 z "},"…":{"ha":865,"x_min":56,"x_max":810,"o":"m 56 168 l 224 168 l 224 0 l 56 0 l 56 168 m 349 168 l 517 168 l 517 0 l 349 0 l 349 168 m 642 168 l 810 168 l 810 0 l 642 0 l 642 168 z "},"˘":{"ha":431,"x_min":56,"x_max":375,"o":"m 56 1154 l 174 1154 q 185 1124 174 1136 q 215 1113 197 1113 q 244 1124 232 1113 q 257 1154 257 1136 l 375 1154 q 363 1092 375 1121 q 328 1041 350 1063 q 277 1007 306 1019 q 215 994 249 994 q 153 1007 182 994 q 102 1041 124 1019 q 68 1092 81 1063 q 56 1154 56 1121 z "},"ž":{"ha":550,"x_min":63,"x_max":488,"o":"m 63 806 l 63 972 l 488 972 l 488 806 l 242 167 l 488 167 l 488 0 l 63 0 l 63 167 l 308 806 l 63 806 m 110 1171 l 210 1028 l 339 1028 l 440 1171 l 311 1171 l 275 1120 l 238 1171 l 110 1171 z "},"ÿ":{"ha":599,"x_min":35,"x_max":564,"o":"m 35 972 l 206 972 l 300 579 l 394 972 l 564 972 l 383 326 l 383 0 l 215 0 l 215 328 l 35 972 m 165 1143 l 278 1143 l 278 1029 l 165 1029 l 165 1143 m 321 1029 l 321 1143 l 433 1143 l 433 1029 l 321 1029 z "},"ý":{"ha":599,"x_min":35,"x_max":564,"o":"m 35 972 l 206 972 l 300 579 l 394 972 l 564 972 l 383 326 l 383 0 l 215 0 l 215 328 l 35 972 m 254 1028 l 315 1176 l 428 1176 l 339 1028 l 254 1028 z "},"ü":{"ha":553,"x_min":63,"x_max":490,"o":"m 63 196 l 63 972 l 231 972 l 231 196 q 243 167 231 179 q 272 154 256 154 q 308 169 293 154 q 322 204 322 183 l 322 971 l 490 971 l 490 204 q 473 119 490 158 q 426 50 456 79 q 358 3 397 21 q 272 -14 318 -14 q 191 3 229 -14 q 124 48 153 19 q 79 115 96 76 q 63 196 63 153 m 143 1143 l 256 1143 l 256 1029 l 143 1029 l 143 1143 m 299 1029 l 299 1143 l 411 1143 l 411 1029 l 299 1029 z "},"û":{"ha":553,"x_min":63,"x_max":490,"o":"m 63 196 l 63 972 l 231 972 l 231 196 q 243 167 231 179 q 272 154 256 154 q 308 169 293 154 q 322 204 322 183 l 322 971 l 490 971 l 490 204 q 473 119 490 158 q 426 50 456 79 q 358 3 397 21 q 272 -14 318 -14 q 191 3 229 -14 q 124 48 153 19 q 79 115 96 76 q 63 196 63 153 m 111 1028 l 211 1171 l 340 1171 l 442 1028 l 313 1028 l 276 1079 l 239 1028 l 111 1028 z "},"ú":{"ha":553,"x_min":63,"x_max":490,"o":"m 63 196 l 63 972 l 231 972 l 231 196 q 243 167 231 179 q 272 154 256 154 q 308 169 293 154 q 322 204 322 183 l 322 971 l 490 971 l 490 204 q 473 119 490 158 q 426 50 456 79 q 358 3 397 21 q 272 -14 318 -14 q 191 3 229 -14 q 124 48 153 19 q 79 115 96 76 q 63 196 63 153 m 293 1176 l 406 1176 l 317 1028 l 232 1028 l 293 1176 z "},"ù":{"ha":553,"x_min":63,"x_max":490,"o":"m 63 196 l 63 972 l 231 972 l 231 196 q 243 167 231 179 q 272 154 256 154 q 308 169 293 154 q 322 204 322 183 l 322 971 l 490 971 l 490 204 q 473 119 490 158 q 426 50 456 79 q 358 3 397 21 q 272 -14 318 -14 q 191 3 229 -14 q 124 48 153 19 q 79 115 96 76 q 63 196 63 153 m 235 1028 l 146 1176 l 258 1176 l 319 1028 l 235 1028 z "},"š":{"ha":500,"x_min":35,"x_max":465,"o":"m 254 986 q 337 969 299 986 q 403 924 375 953 q 449 858 432 896 q 465 775 465 819 l 465 726 l 296 726 q 295 760 296 743 q 290 789 294 776 q 275 810 285 801 q 246 818 265 818 q 212 797 219 818 q 204 754 204 775 q 224 665 204 706 q 272 588 243 625 q 335 515 301 551 q 397 435 368 478 q 446 342 426 393 q 465 225 465 290 q 450 134 465 178 q 406 58 435 90 q 337 6 378 25 q 246 -14 296 -14 q 164 3 203 -14 q 97 49 125 19 q 53 116 69 78 q 36 197 36 154 l 36 247 l 204 247 q 203 219 204 235 q 206 188 203 203 q 219 164 210 174 q 246 154 228 154 q 283 174 269 154 q 297 215 297 193 q 278 303 297 264 q 229 380 258 343 q 166 455 200 417 q 103 537 132 493 q 54 635 74 581 q 35 757 35 689 q 51 847 35 806 q 95 920 67 889 q 164 969 124 951 q 254 986 204 986 m 85 1171 l 185 1028 l 314 1028 l 415 1171 l 286 1171 l 250 1120 l 213 1171 l 85 1171 z "},"œ":{"ha":1058,"x_min":63,"x_max":704,"o":"m 272 986 q 356 969 317 986 q 426 922 396 951 q 473 852 456 892 q 490 768 490 813 l 490 204 q 473 120 490 160 q 426 51 456 81 q 356 3 396 21 q 272 -14 317 -14 q 191 3 229 -14 q 124 49 153 19 q 79 116 96 78 q 63 197 63 154 l 63 775 q 79 856 63 818 q 124 924 96 894 q 191 969 153 953 q 272 986 229 986 m 272 154 q 307 169 292 154 q 322 204 322 185 l 322 768 q 307 803 322 788 q 272 818 292 818 q 243 805 256 818 q 231 775 231 792 l 231 197 q 243 167 231 181 q 272 154 256 154 m 324 0 l 324 972 l 703 972 l 703 806 l 490 806 l 490 569 l 658 569 l 658 403 l 490 403 l 490 167 l 704 167 l 704 0 l 324 0 z "},"ø":{"ha":593,"x_min":49,"x_max":544,"o":"m 293 986 q 377 969 338 986 q 447 922 417 951 q 494 852 476 892 q 511 768 511 813 l 511 204 q 494 120 511 160 q 447 51 476 81 q 377 3 417 21 q 293 -14 338 -14 q 212 3 250 -14 q 145 49 174 19 q 100 116 117 78 q 83 197 83 154 l 83 775 q 100 856 83 818 q 145 924 117 894 q 212 969 174 953 q 293 986 250 986 m 293 154 q 328 169 313 154 q 343 204 343 185 l 343 768 q 328 803 343 788 q 293 818 313 818 q 264 805 276 818 q 251 775 251 792 l 251 197 q 264 167 251 181 q 293 154 276 154 m 421 972 l 544 972 l 174 0 l 49 0 l 421 972 z "},"ö":{"ha":553,"x_min":63,"x_max":490,"o":"m 272 986 q 356 969 317 986 q 426 922 396 951 q 473 852 456 892 q 490 768 490 813 l 490 204 q 473 120 490 160 q 426 51 456 81 q 356 3 396 21 q 272 -14 317 -14 q 191 3 229 -14 q 124 49 153 19 q 79 116 96 78 q 63 197 63 154 l 63 775 q 79 856 63 818 q 124 924 96 894 q 191 969 153 953 q 272 986 229 986 m 272 154 q 307 169 292 154 q 322 204 322 185 l 322 768 q 307 803 322 788 q 272 818 292 818 q 243 805 256 818 q 231 775 231 792 l 231 197 q 243 167 231 181 q 272 154 256 154 m 143 1143 l 256 1143 l 256 1029 l 143 1029 l 143 1143 m 299 1029 l 299 1143 l 411 1143 l 411 1029 l 299 1029 z "},"õ":{"ha":553,"x_min":54,"x_max":490,"o":"m 272 986 q 356 969 317 986 q 426 922 396 951 q 473 852 456 892 q 490 768 490 813 l 490 204 q 473 120 490 160 q 426 51 456 81 q 356 3 396 21 q 272 -14 317 -14 q 191 3 229 -14 q 124 49 153 19 q 79 116 96 78 q 63 197 63 154 l 63 775 q 79 856 63 818 q 124 924 96 894 q 191 969 153 953 q 272 986 229 986 m 272 154 q 307 169 292 154 q 322 204 322 185 l 322 768 q 307 803 322 788 q 272 818 292 818 q 243 805 256 818 q 231 775 231 792 l 231 197 q 243 167 231 181 q 272 154 256 154 m 158 1028 l 54 1065 q 78 1109 63 1089 q 114 1144 93 1129 q 158 1168 135 1160 q 207 1176 182 1176 q 272 1165 249 1176 q 310 1142 294 1153 q 324 1133 319 1135 q 339 1131 328 1131 q 358 1137 350 1131 q 372 1151 365 1143 q 381 1167 378 1160 q 386 1176 385 1175 l 385 1176 l 386 1176 l 386 1176 l 490 1140 q 483 1121 490 1138 q 460 1083 475 1104 q 339 1019 411 1019 q 280 1031 301 1019 q 244 1051 258 1042 q 228 1062 233 1058 q 207 1065 222 1065 q 178 1054 192 1065 q 158 1028 164 1043 z "},"ô":{"ha":553,"x_min":63,"x_max":490,"o":"m 272 986 q 356 969 317 986 q 426 922 396 951 q 473 852 456 892 q 490 768 490 813 l 490 204 q 473 120 490 160 q 426 51 456 81 q 356 3 396 21 q 272 -14 317 -14 q 191 3 229 -14 q 124 49 153 19 q 79 116 96 78 q 63 197 63 154 l 63 775 q 79 856 63 818 q 124 924 96 894 q 191 969 153 953 q 272 986 229 986 m 272 154 q 307 169 292 154 q 322 204 322 185 l 322 768 q 307 803 322 788 q 272 818 292 818 q 243 805 256 818 q 231 775 231 792 l 231 197 q 243 167 231 181 q 272 154 256 154 m 111 1028 l 211 1171 l 340 1171 l 442 1028 l 313 1028 l 276 1079 l 239 1028 l 111 1028 z "},"ó":{"ha":553,"x_min":63,"x_max":490,"o":"m 272 986 q 356 969 317 986 q 426 922 396 951 q 473 852 456 892 q 490 768 490 813 l 490 204 q 473 120 490 160 q 426 51 456 81 q 356 3 396 21 q 272 -14 317 -14 q 191 3 229 -14 q 124 49 153 19 q 79 116 96 78 q 63 197 63 154 l 63 775 q 79 856 63 818 q 124 924 96 894 q 191 969 153 953 q 272 986 229 986 m 272 154 q 307 169 292 154 q 322 204 322 185 l 322 768 q 307 803 322 788 q 272 818 292 818 q 243 805 256 818 q 231 775 231 792 l 231 197 q 243 167 231 181 q 272 154 256 154 m 251 1176 l 364 1176 l 275 1028 l 190 1028 l 251 1176 z "},"ò":{"ha":553,"x_min":63,"x_max":490,"o":"m 272 986 q 356 969 317 986 q 426 922 396 951 q 473 852 456 892 q 490 768 490 813 l 490 204 q 473 120 490 160 q 426 51 456 81 q 356 3 396 21 q 272 -14 317 -14 q 191 3 229 -14 q 124 49 153 19 q 79 116 96 78 q 63 197 63 154 l 63 775 q 79 856 63 818 q 124 924 96 894 q 191 969 153 953 q 272 986 229 986 m 272 154 q 307 169 292 154 q 322 204 322 185 l 322 768 q 307 803 322 788 q 272 818 292 818 q 243 805 256 818 q 231 775 231 792 l 231 197 q 243 167 231 181 q 272 154 256 154 m 279 1028 l 190 1176 l 303 1176 l 364 1028 l 279 1028 z "},"ñ":{"ha":550,"x_min":54,"x_max":490,"o":"m 63 0 l 63 972 l 210 972 l 210 971 l 339 494 l 339 972 l 488 972 l 488 0 l 339 0 l 210 476 l 210 0 l 63 0 m 158 1025 l 54 1063 q 78 1106 63 1086 q 114 1142 93 1126 q 158 1165 135 1157 q 207 1174 182 1174 q 272 1162 249 1174 q 310 1139 294 1150 q 324 1130 319 1132 q 339 1128 328 1128 q 358 1134 350 1128 q 372 1149 365 1140 q 381 1165 378 1157 q 386 1174 385 1172 l 385 1174 l 386 1174 l 386 1174 l 490 1138 q 483 1118 490 1135 q 460 1081 475 1101 q 339 1017 411 1017 q 280 1028 301 1017 q 244 1049 258 1039 q 228 1059 233 1056 q 207 1063 222 1063 q 178 1051 192 1063 q 158 1025 164 1040 z "},"ï":{"ha":292,"x_min":11,"x_max":281,"o":"m 63 971 l 229 971 l 229 0 l 63 0 l 63 971 m 11 1143 l 124 1143 l 124 1029 l 11 1029 l 11 1143 m 167 1029 l 167 1143 l 279 1143 l 279 1029 l 167 1029 z "},"Ž":{"ha":550,"x_min":63,"x_max":488,"o":"m 63 806 l 63 972 l 488 972 l 488 806 l 242 167 l 488 167 l 488 0 l 63 0 l 63 167 l 308 806 l 63 806 m 110 1171 l 210 1028 l 339 1028 l 440 1171 l 311 1171 l 275 1120 l 238 1171 l 110 1171 z "},"Ý":{"ha":599,"x_min":35,"x_max":564,"o":"m 35 972 l 206 972 l 300 579 l 394 972 l 564 972 l 383 326 l 383 0 l 215 0 l 215 328 l 35 972 m 317 1176 l 429 1176 l 340 1028 l 256 1028 l 317 1176 z "},"Ÿ":{"ha":599,"x_min":35,"x_max":564,"o":"m 35 972 l 206 972 l 300 579 l 394 972 l 564 972 l 383 326 l 383 0 l 215 0 l 215 328 l 35 972 m 165 1142 l 278 1142 l 278 1028 l 165 1028 l 165 1142 m 321 1028 l 321 1142 l 433 1142 l 433 1028 l 321 1028 z "},"Ü":{"ha":553,"x_min":63,"x_max":490,"o":"m 63 196 l 63 972 l 231 972 l 231 196 q 243 167 231 179 q 272 154 256 154 q 308 169 293 154 q 322 204 322 183 l 322 971 l 490 971 l 490 204 q 473 119 490 158 q 426 50 456 79 q 358 3 397 21 q 272 -14 318 -14 q 191 3 229 -14 q 124 48 153 19 q 79 115 96 76 q 63 196 63 153 m 144 1140 l 257 1140 l 257 1026 l 144 1026 l 144 1140 m 300 1026 l 300 1140 l 413 1140 l 413 1026 l 300 1026 z "},"Û":{"ha":553,"x_min":63,"x_max":490,"o":"m 63 196 l 63 972 l 231 972 l 231 196 q 243 167 231 179 q 272 154 256 154 q 308 169 293 154 q 322 204 322 183 l 322 971 l 490 971 l 490 204 q 473 119 490 158 q 426 50 456 79 q 358 3 397 21 q 272 -14 318 -14 q 191 3 229 -14 q 124 48 153 19 q 79 115 96 76 q 63 196 63 153 m 111 1028 l 211 1171 l 340 1171 l 442 1028 l 313 1028 l 276 1079 l 239 1028 l 111 1028 z "},"Ú":{"ha":553,"x_min":63,"x_max":490,"o":"m 63 196 l 63 972 l 231 972 l 231 196 q 243 167 231 179 q 272 154 256 154 q 308 169 293 154 q 322 204 322 183 l 322 971 l 490 971 l 490 204 q 473 119 490 158 q 426 50 456 79 q 358 3 397 21 q 272 -14 318 -14 q 191 3 229 -14 q 124 48 153 19 q 79 115 96 76 q 63 196 63 153 m 290 1176 l 403 1176 l 314 1028 l 229 1028 l 290 1176 z "},"Ù":{"ha":553,"x_min":63,"x_max":490,"o":"m 63 196 l 63 972 l 231 972 l 231 196 q 243 167 231 179 q 272 154 256 154 q 308 169 293 154 q 322 204 322 183 l 322 971 l 490 971 l 490 204 q 473 119 490 158 q 426 50 456 79 q 358 3 397 21 q 272 -14 318 -14 q 191 3 229 -14 q 124 48 153 19 q 79 115 96 76 q 63 196 63 153 m 239 1028 l 150 1176 l 263 1176 l 324 1028 l 239 1028 z "},"Š":{"ha":556,"x_min":63,"x_max":493,"o":"m 282 986 q 365 969 326 986 q 431 924 403 953 q 476 858 460 896 q 493 775 493 819 l 493 726 l 324 726 q 323 760 324 743 q 317 789 322 776 q 303 810 313 801 q 274 818 293 818 q 240 797 247 818 q 232 754 232 775 q 251 665 232 706 q 300 588 271 625 q 363 515 329 551 q 425 435 396 478 q 474 342 454 393 q 493 225 493 290 q 478 134 493 178 q 434 58 463 90 q 365 6 406 25 q 274 -14 324 -14 q 192 3 231 -14 q 125 49 153 19 q 81 116 97 78 q 64 197 64 154 l 64 247 l 232 247 q 231 219 232 235 q 234 188 231 203 q 247 164 238 174 q 274 154 256 154 q 311 174 297 154 q 325 215 325 193 q 306 303 325 264 q 257 380 286 343 q 194 455 228 417 q 131 537 160 493 q 82 635 101 581 q 63 757 63 689 q 78 847 63 806 q 123 920 94 889 q 192 969 151 951 q 282 986 232 986 m 111 1171 l 211 1028 l 340 1028 l 442 1171 l 313 1171 l 276 1120 l 239 1171 l 111 1171 z "},"Œ":{"ha":767,"x_min":63,"x_max":704,"o":"m 272 986 q 356 969 317 986 q 426 922 396 951 q 473 852 456 892 q 490 768 490 813 l 490 204 q 473 120 490 160 q 426 51 456 81 q 356 3 396 21 q 272 -14 317 -14 q 191 3 229 -14 q 124 49 153 19 q 79 116 96 78 q 63 197 63 154 l 63 775 q 79 856 63 818 q 124 924 96 894 q 191 969 153 953 q 272 986 229 986 m 272 154 q 307 169 292 154 q 322 204 322 185 l 322 768 q 307 803 322 788 q 272 818 292 818 q 243 805 256 818 q 231 775 231 792 l 231 197 q 243 167 231 181 q 272 154 256 154 m 324 0 l 324 972 l 703 972 l 703 806 l 490 806 l 490 569 l 658 569 l 658 403 l 490 403 l 490 167 l 704 167 l 704 0 l 324 0 z "},"Ø":{"ha":593,"x_min":49,"x_max":544,"o":"m 293 986 q 377 969 338 986 q 447 922 417 951 q 494 852 476 892 q 511 768 511 813 l 511 204 q 494 120 511 160 q 447 51 476 81 q 377 3 417 21 q 293 -14 338 -14 q 212 3 250 -14 q 145 49 174 19 q 100 116 117 78 q 83 197 83 154 l 83 775 q 100 856 83 818 q 145 924 117 894 q 212 969 174 953 q 293 986 250 986 m 293 154 q 328 169 313 154 q 343 204 343 185 l 343 768 q 328 803 343 788 q 293 818 313 818 q 264 805 276 818 q 251 775 251 792 l 251 197 q 264 167 251 181 q 293 154 276 154 m 421 972 l 544 972 l 174 0 l 49 0 l 421 972 z "},"Ö":{"ha":553,"x_min":63,"x_max":490,"o":"m 272 986 q 356 969 317 986 q 426 922 396 951 q 473 852 456 892 q 490 768 490 813 l 490 204 q 473 120 490 160 q 426 51 456 81 q 356 3 396 21 q 272 -14 317 -14 q 191 3 229 -14 q 124 49 153 19 q 79 116 96 78 q 63 197 63 154 l 63 775 q 79 856 63 818 q 124 924 96 894 q 191 969 153 953 q 272 986 229 986 m 272 154 q 307 169 292 154 q 322 204 322 185 l 322 768 q 307 803 322 788 q 272 818 292 818 q 243 805 256 818 q 231 775 231 792 l 231 197 q 243 167 231 181 q 272 154 256 154 m 144 1140 l 257 1140 l 257 1026 l 144 1026 l 144 1140 m 300 1026 l 300 1140 l 413 1140 l 413 1026 l 300 1026 z "},"Õ":{"ha":553,"x_min":56,"x_max":492,"o":"m 272 986 q 356 969 317 986 q 426 922 396 951 q 473 852 456 892 q 490 768 490 813 l 490 204 q 473 120 490 160 q 426 51 456 81 q 356 3 396 21 q 272 -14 317 -14 q 191 3 229 -14 q 124 49 153 19 q 79 116 96 78 q 63 197 63 154 l 63 775 q 79 856 63 818 q 124 924 96 894 q 191 969 153 953 q 272 986 229 986 m 272 154 q 307 169 292 154 q 322 204 322 185 l 322 768 q 307 803 322 788 q 272 818 292 818 q 243 805 256 818 q 231 775 231 792 l 231 197 q 243 167 231 181 q 272 154 256 154 m 160 1022 l 56 1060 q 79 1103 64 1083 q 115 1139 94 1124 q 160 1163 136 1154 q 208 1171 183 1171 q 273 1159 250 1171 q 311 1136 296 1147 q 325 1127 321 1129 q 340 1125 329 1125 q 359 1131 351 1125 q 373 1146 367 1138 q 383 1162 379 1154 q 388 1171 386 1169 l 386 1171 l 388 1171 l 388 1171 l 492 1135 q 484 1115 492 1132 q 461 1078 476 1099 q 340 1014 413 1014 q 281 1025 303 1014 q 246 1046 260 1036 q 229 1056 235 1053 q 208 1060 224 1060 q 179 1049 193 1060 q 160 1022 165 1038 z "},"Ô":{"ha":553,"x_min":63,"x_max":490,"o":"m 272 986 q 356 969 317 986 q 426 922 396 951 q 473 852 456 892 q 490 768 490 813 l 490 204 q 473 120 490 160 q 426 51 456 81 q 356 3 396 21 q 272 -14 317 -14 q 191 3 229 -14 q 124 49 153 19 q 79 116 96 78 q 63 197 63 154 l 63 775 q 79 856 63 818 q 124 924 96 894 q 191 969 153 953 q 272 986 229 986 m 272 154 q 307 169 292 154 q 322 204 322 185 l 322 768 q 307 803 322 788 q 272 818 292 818 q 243 805 256 818 q 231 775 231 792 l 231 197 q 243 167 231 181 q 272 154 256 154 m 108 1028 l 208 1171 l 338 1171 l 439 1028 l 310 1028 l 274 1079 l 236 1028 l 108 1028 z "},"Ó":{"ha":553,"x_min":63,"x_max":490,"o":"m 272 986 q 356 969 317 986 q 426 922 396 951 q 473 852 456 892 q 490 768 490 813 l 490 204 q 473 120 490 160 q 426 51 456 81 q 356 3 396 21 q 272 -14 317 -14 q 191 3 229 -14 q 124 49 153 19 q 79 116 96 78 q 63 197 63 154 l 63 775 q 79 856 63 818 q 124 924 96 894 q 191 969 153 953 q 272 986 229 986 m 272 154 q 307 169 292 154 q 322 204 322 185 l 322 768 q 307 803 322 788 q 272 818 292 818 q 243 805 256 818 q 231 775 231 792 l 231 197 q 243 167 231 181 q 272 154 256 154 m 249 1176 l 361 1176 l 272 1028 l 188 1028 l 249 1176 z "},"Ò":{"ha":553,"x_min":63,"x_max":490,"o":"m 272 986 q 356 969 317 986 q 426 922 396 951 q 473 852 456 892 q 490 768 490 813 l 490 204 q 473 120 490 160 q 426 51 456 81 q 356 3 396 21 q 272 -14 317 -14 q 191 3 229 -14 q 124 49 153 19 q 79 116 96 78 q 63 197 63 154 l 63 775 q 79 856 63 818 q 124 924 96 894 q 191 969 153 953 q 272 986 229 986 m 272 154 q 307 169 292 154 q 322 204 322 185 l 322 768 q 307 803 322 788 q 272 818 292 818 q 243 805 256 818 q 231 775 231 792 l 231 197 q 243 167 231 181 q 272 154 256 154 m 272 1028 l 183 1176 l 296 1176 l 357 1028 l 272 1028 z "},"Ñ":{"ha":550,"x_min":54,"x_max":490,"o":"m 63 0 l 63 972 l 210 972 l 210 971 l 339 494 l 339 972 l 488 972 l 488 0 l 339 0 l 210 476 l 210 0 l 63 0 m 158 1029 l 54 1067 q 78 1110 63 1090 q 114 1146 93 1131 q 158 1169 135 1161 q 207 1178 182 1178 q 272 1166 249 1178 q 310 1143 294 1154 q 324 1134 319 1136 q 339 1132 328 1132 q 358 1138 350 1132 q 372 1153 365 1144 q 381 1169 378 1161 q 386 1178 385 1176 l 385 1178 l 386 1178 l 386 1178 l 490 1142 q 483 1122 490 1139 q 460 1085 475 1106 q 339 1021 411 1021 q 280 1032 301 1021 q 244 1053 258 1043 q 228 1063 233 1060 q 207 1067 222 1067 q 178 1056 192 1067 q 158 1029 164 1044 z "},"Ï":{"ha":292,"x_min":14,"x_max":282,"o":"m 63 971 l 229 971 l 229 0 l 63 0 l 63 971 m 14 1140 l 126 1140 l 126 1026 l 14 1026 l 14 1140 m 169 1026 l 169 1140 l 282 1140 l 282 1026 l 169 1026 z "},"Î":{"ha":292,"x_min":-19,"x_max":311,"o":"m 63 971 l 229 971 l 229 0 l 63 0 l 63 971 m -19 1028 l 81 1171 l 210 1171 l 311 1028 l 182 1028 l 146 1079 l 108 1028 l -19 1028 z "},"Í":{"ha":292,"x_min":63,"x_max":272,"o":"m 63 971 l 229 971 l 229 0 l 63 0 l 63 971 m 160 1176 l 272 1176 l 183 1028 l 99 1028 l 160 1176 z "},"Ì":{"ha":292,"x_min":17,"x_max":229,"o":"m 63 971 l 229 971 l 229 0 l 63 0 l 63 971 m 106 1026 l 17 1175 l 129 1175 l 190 1026 l 106 1026 z "},"À":{"ha":588,"x_min":49,"x_max":539,"o":"m 49 0 l 153 972 l 436 972 l 539 0 l 372 0 l 340 319 l 247 319 l 217 0 l 49 0 m 324 486 l 294 822 l 264 486 l 324 486 m 264 1028 l 175 1176 l 288 1176 l 349 1028 l 264 1028 z "},"Á":{"ha":588,"x_min":49,"x_max":539,"o":"m 49 0 l 153 972 l 436 972 l 539 0 l 372 0 l 340 319 l 247 319 l 217 0 l 49 0 m 324 486 l 294 822 l 264 486 l 324 486 m 300 1176 l 413 1176 l 324 1028 l 239 1028 l 300 1176 z "},"Â":{"ha":588,"x_min":49,"x_max":539,"o":"m 49 0 l 153 972 l 436 972 l 539 0 l 372 0 l 340 319 l 247 319 l 217 0 l 49 0 m 324 486 l 294 822 l 264 486 l 324 486 m 129 1028 l 229 1171 l 358 1171 l 460 1028 l 331 1028 l 294 1079 l 257 1028 l 129 1028 z "},"Ã":{"ha":588,"x_min":49,"x_max":539,"o":"m 49 0 l 153 972 l 436 972 l 539 0 l 372 0 l 340 319 l 247 319 l 217 0 l 49 0 m 324 486 l 294 822 l 264 486 l 324 486 m 182 1026 l 78 1064 q 101 1108 86 1088 q 138 1143 117 1128 q 182 1167 158 1158 q 231 1175 206 1175 q 295 1163 272 1175 q 333 1140 318 1151 q 347 1131 343 1133 q 363 1129 351 1129 q 381 1135 374 1129 q 395 1150 389 1142 q 405 1166 401 1158 q 410 1175 408 1174 l 408 1175 l 410 1175 l 410 1175 l 514 1139 q 506 1119 514 1136 q 483 1082 499 1103 q 363 1018 435 1018 q 303 1029 325 1018 q 268 1050 282 1040 q 251 1060 257 1057 q 231 1064 246 1064 q 201 1053 215 1064 q 182 1026 188 1042 z "},"Ä":{"ha":588,"x_min":49,"x_max":539,"o":"m 49 0 l 153 972 l 436 972 l 539 0 l 372 0 l 340 319 l 247 319 l 217 0 l 49 0 m 324 486 l 294 822 l 264 486 l 324 486 m 160 1142 l 272 1142 l 272 1028 l 160 1028 l 160 1142 m 315 1028 l 315 1142 l 428 1142 l 428 1028 l 315 1028 z "},"Æ":{"ha":815,"x_min":49,"x_max":753,"o":"m 49 0 l 153 972 l 436 972 l 539 0 l 372 0 l 340 319 l 247 319 l 217 0 l 49 0 m 324 486 l 294 822 l 264 486 l 324 486 m 372 0 l 372 972 l 751 972 l 751 806 l 539 806 l 539 569 l 707 569 l 707 403 l 539 403 l 539 167 l 753 167 l 753 0 l 372 0 z "},"æ":{"ha":815,"x_min":49,"x_max":753,"o":"m 49 0 l 153 972 l 436 972 l 539 0 l 372 0 l 340 319 l 247 319 l 217 0 l 49 0 m 324 486 l 294 822 l 264 486 l 324 486 m 372 0 l 372 972 l 751 972 l 751 806 l 539 806 l 539 569 l 707 569 l 707 403 l 539 403 l 539 167 l 753 167 l 753 0 l 372 0 z "},"á":{"ha":588,"x_min":49,"x_max":539,"o":"m 49 0 l 153 972 l 436 972 l 539 0 l 372 0 l 340 319 l 247 319 l 217 0 l 49 0 m 324 486 l 294 822 l 264 486 l 324 486 m 294 1176 l 407 1176 l 318 1028 l 233 1028 l 294 1176 z "},"â":{"ha":588,"x_min":49,"x_max":539,"o":"m 49 0 l 153 972 l 436 972 l 539 0 l 372 0 l 340 319 l 247 319 l 217 0 l 49 0 m 324 486 l 294 822 l 264 486 l 324 486 m 129 1028 l 229 1171 l 358 1171 l 460 1028 l 331 1028 l 294 1079 l 257 1028 l 129 1028 z "},"ã":{"ha":588,"x_min":49,"x_max":539,"o":"m 49 0 l 153 972 l 436 972 l 539 0 l 372 0 l 340 319 l 247 319 l 217 0 l 49 0 m 324 486 l 294 822 l 264 486 l 324 486 m 181 1026 l 76 1064 q 100 1108 85 1088 q 136 1143 115 1128 q 181 1167 157 1158 q 229 1175 204 1175 q 294 1163 271 1175 q 332 1140 317 1151 q 346 1131 342 1133 q 361 1129 350 1129 q 380 1135 372 1129 q 394 1150 388 1142 q 403 1166 400 1158 q 408 1175 407 1174 l 407 1175 l 408 1175 l 408 1175 l 513 1139 q 505 1119 513 1136 q 482 1082 497 1103 q 361 1018 433 1018 q 302 1029 324 1018 q 267 1050 281 1040 q 250 1060 256 1057 q 229 1064 244 1064 q 200 1053 214 1064 q 181 1026 186 1042 z "},"ä":{"ha":588,"x_min":49,"x_max":539,"o":"m 49 0 l 153 972 l 436 972 l 539 0 l 372 0 l 340 319 l 247 319 l 217 0 l 49 0 m 324 486 l 294 822 l 264 486 l 324 486 m 160 1143 l 272 1143 l 272 1029 l 160 1029 l 160 1143 m 315 1029 l 315 1143 l 428 1143 l 428 1029 l 315 1029 z "},"à":{"ha":588,"x_min":49,"x_max":539,"o":"m 49 0 l 153 972 l 436 972 l 539 0 l 372 0 l 340 319 l 247 319 l 217 0 l 49 0 m 324 486 l 294 822 l 264 486 l 324 486 m 264 1028 l 175 1176 l 288 1176 l 349 1028 l 264 1028 z "},"Ð":{"ha":606,"x_min":49,"x_max":543,"o":"m 325 974 q 409 956 369 974 q 478 909 449 939 q 526 840 508 879 q 543 756 543 800 l 543 219 q 526 135 543 175 q 478 66 508 96 q 409 19 449 36 q 325 1 369 1 l 114 1 l 114 974 l 325 974 m 282 169 l 325 169 q 360 185 344 169 q 375 219 375 200 l 375 756 q 360 790 375 775 q 325 806 344 806 l 282 806 l 282 169 m 49 550 l 351 550 l 351 382 l 49 382 l 49 550 z "},"Đ":{"ha":606,"x_min":49,"x_max":543,"o":"m 325 974 q 409 956 369 974 q 478 909 449 939 q 526 840 508 879 q 543 756 543 800 l 543 219 q 526 135 543 175 q 478 66 508 96 q 409 19 449 36 q 325 1 369 1 l 114 1 l 114 974 l 325 974 m 282 169 l 325 169 q 360 185 344 169 q 375 219 375 200 l 375 756 q 360 790 375 775 q 325 806 344 806 l 282 806 l 282 169 m 49 550 l 351 550 l 351 382 l 49 382 l 49 550 z "},"đ":{"ha":606,"x_min":49,"x_max":543,"o":"m 325 974 q 409 956 369 974 q 478 909 449 939 q 526 840 508 879 q 543 756 543 800 l 543 219 q 526 135 543 175 q 478 66 508 96 q 409 19 449 36 q 325 1 369 1 l 114 1 l 114 974 l 325 974 m 282 169 l 325 169 q 360 185 344 169 q 375 219 375 200 l 375 756 q 360 790 375 775 q 325 806 344 806 l 282 806 l 282 169 m 49 550 l 351 550 l 351 382 l 49 382 l 49 550 z "},"Ђ":{"ha":642,"x_min":35,"x_max":607,"o":"m 458 972 l 458 806 l 332 806 l 332 565 l 375 571 q 465 553 424 571 q 539 503 507 535 q 589 429 571 471 q 607 339 607 388 l 607 232 q 590 144 607 185 q 542 72 572 103 q 472 22 513 40 q 385 0 431 3 l 385 167 q 424 189 408 171 q 440 232 440 207 l 440 339 q 422 385 440 367 q 375 404 403 404 l 332 404 l 332 0 l 164 0 l 164 806 l 35 806 l 35 972 l 458 972 z "},"ђ":{"ha":642,"x_min":35,"x_max":607,"o":"m 458 972 l 458 806 l 332 806 l 332 565 l 375 571 q 465 553 424 571 q 539 503 507 535 q 589 429 571 471 q 607 339 607 388 l 607 232 q 590 144 607 185 q 542 72 572 103 q 472 22 513 40 q 385 0 431 3 l 385 167 q 424 189 408 171 q 440 232 440 207 l 440 339 q 422 385 440 367 q 375 404 403 404 l 332 404 l 332 0 l 164 0 l 164 806 l 35 806 l 35 972 l 458 972 z "},"Ћ":{"ha":642,"x_min":35,"x_max":607,"o":"m 35 806 l 35 972 l 458 972 l 458 806 l 332 806 l 332 565 l 375 571 q 465 553 424 571 q 539 503 507 535 q 589 429 571 471 q 607 339 607 388 l 607 0 l 440 0 l 440 339 q 422 385 440 367 q 375 404 403 404 l 332 404 l 332 0 l 164 0 l 164 806 l 35 806 z "},"ћ":{"ha":642,"x_min":35,"x_max":607,"o":"m 35 806 l 35 972 l 458 972 l 458 806 l 332 806 l 332 565 l 375 571 q 465 553 424 571 q 539 503 507 535 q 589 429 571 471 q 607 339 607 388 l 607 0 l 440 0 l 440 339 q 422 385 440 367 q 375 404 403 404 l 332 404 l 332 0 l 164 0 l 164 806 l 35 806 z "},"Щ":{"ha":694,"x_min":63,"x_max":653,"o":"m 210 972 l 210 149 l 250 149 l 250 972 l 397 972 l 397 149 l 436 149 l 436 972 l 585 972 l 585 149 l 653 149 l 653 0 l 63 0 l 63 972 l 210 972 z "},"Э":{"ha":557,"x_min":64,"x_max":493,"o":"m 493 192 l 493 779 q 475 865 493 826 q 427 930 457 903 q 357 972 397 957 q 271 986 317 986 q 190 969 228 986 q 124 925 153 953 q 80 859 96 897 q 64 779 64 821 l 64 651 l 232 651 l 232 779 q 249 810 232 803 q 286 817 267 817 q 313 806 301 817 q 325 779 325 794 l 325 571 l 158 571 l 158 404 l 325 404 l 325 192 q 308 161 325 168 q 271 154 290 154 q 244 165 256 154 q 232 192 232 176 l 232 322 l 64 322 l 64 192 q 82 106 64 144 q 130 42 100 68 q 200 1 160 15 q 286 -14 240 -14 q 367 2 329 -14 q 432 47 404 18 q 476 113 460 75 q 493 192 493 150 z "},"Ю":{"ha":803,"x_min":63,"x_max":740,"o":"m 272 986 q 358 969 318 986 q 426 922 397 951 q 473 852 456 892 q 490 768 490 813 l 490 571 l 574 571 l 574 972 l 740 972 l 740 0 l 574 0 l 574 406 l 490 406 l 490 204 q 473 120 490 160 q 426 51 456 81 q 358 3 397 21 q 272 -14 318 -14 q 191 3 229 -14 q 124 48 153 19 q 79 115 96 76 q 63 196 63 153 l 63 776 q 79 858 63 819 q 124 924 96 896 q 191 969 153 953 q 272 986 229 986 m 272 154 q 308 169 293 154 q 322 204 322 185 l 322 768 q 308 803 322 788 q 272 818 293 818 q 243 806 256 818 q 231 775 231 793 l 231 197 q 243 167 231 179 q 272 154 256 154 z "},"Ь":{"ha":531,"x_min":63,"x_max":489,"o":"m 63 0 l 274 0 q 357 17 318 0 q 425 64 396 35 q 472 132 454 93 q 489 215 489 171 l 489 354 q 472 438 489 399 q 425 506 454 476 q 357 552 396 535 q 274 569 318 569 l 229 569 l 229 972 l 63 972 l 63 0 m 229 403 l 274 403 q 308 388 293 403 q 322 354 322 374 l 322 215 q 308 181 322 196 q 274 167 293 167 l 229 167 l 229 403 z "},"Ъ":{"ha":558,"x_min":21,"x_max":517,"o":"m 21 972 l 257 972 l 257 569 l 301 569 q 385 552 346 569 q 453 506 424 535 q 499 438 482 476 q 517 354 517 399 l 517 215 q 499 132 517 171 q 453 64 482 93 q 385 17 424 35 q 301 0 346 0 l 90 0 l 90 808 l 21 808 l 21 972 m 301 167 q 335 181 321 167 q 350 215 350 196 l 350 354 q 335 388 350 374 q 301 403 321 403 l 257 403 l 257 167 l 301 167 z "},"Ы":{"ha":776,"x_min":63,"x_max":714,"o":"m 63 972 l 229 972 l 229 569 l 274 569 q 357 552 318 569 q 425 506 396 535 q 472 438 454 476 q 489 354 489 399 l 489 215 q 472 132 489 171 q 425 64 454 93 q 357 17 396 35 q 274 0 318 0 l 63 0 l 63 972 m 547 1 l 547 972 l 714 972 l 714 1 l 547 1 m 229 167 l 274 167 q 308 181 293 167 q 322 215 322 196 l 322 354 q 308 388 322 374 q 274 403 293 403 l 229 403 l 229 167 z "},"Ґ":{"ha":475,"x_min":63,"x_max":440,"o":"m 274 972 l 274 1042 l 440 1042 l 440 806 l 229 806 l 229 0 l 63 0 l 63 972 l 274 972 z "},"щ":{"ha":694,"x_min":63,"x_max":653,"o":"m 210 972 l 210 149 l 250 149 l 250 972 l 397 972 l 397 149 l 436 149 l 436 972 l 585 972 l 585 149 l 653 149 l 653 0 l 63 0 l 63 972 l 210 972 z "},"ъ":{"ha":558,"x_min":21,"x_max":517,"o":"m 21 972 l 257 972 l 257 569 l 301 569 q 385 552 346 569 q 453 506 424 535 q 499 438 482 476 q 517 354 517 399 l 517 215 q 499 132 517 171 q 453 64 482 93 q 385 17 424 35 q 301 0 346 0 l 90 0 l 90 808 l 21 808 l 21 972 m 301 167 q 335 181 321 167 q 350 215 350 196 l 350 354 q 335 388 350 374 q 301 403 321 403 l 257 403 l 257 167 l 301 167 z "},"ы":{"ha":776,"x_min":63,"x_max":714,"o":"m 63 972 l 229 972 l 229 569 l 274 569 q 357 552 318 569 q 425 506 396 535 q 472 438 454 476 q 489 354 489 399 l 489 215 q 472 132 489 171 q 425 64 454 93 q 357 17 396 35 q 274 0 318 0 l 63 0 l 63 972 m 547 1 l 547 972 l 714 972 l 714 1 l 547 1 m 229 167 l 274 167 q 308 181 293 167 q 322 215 322 196 l 322 354 q 308 388 322 374 q 274 403 293 403 l 229 403 l 229 167 z "},"ь":{"ha":531,"x_min":63,"x_max":489,"o":"m 63 0 l 274 0 q 357 17 318 0 q 425 64 396 35 q 472 132 454 93 q 489 215 489 171 l 489 354 q 472 438 489 399 q 425 506 454 476 q 357 552 396 535 q 274 569 318 569 l 229 569 l 229 972 l 63 972 l 63 0 m 229 403 l 274 403 q 308 388 293 403 q 322 354 322 374 l 322 215 q 308 181 322 196 q 274 167 293 167 l 229 167 l 229 403 z "},"э":{"ha":557,"x_min":64,"x_max":493,"o":"m 493 192 l 493 779 q 475 865 493 826 q 427 930 457 903 q 357 972 397 957 q 271 986 317 986 q 190 969 228 986 q 124 925 153 953 q 80 859 96 897 q 64 779 64 821 l 64 651 l 232 651 l 232 779 q 249 810 232 803 q 286 817 267 817 q 313 806 301 817 q 325 779 325 794 l 325 571 l 158 571 l 158 404 l 325 404 l 325 192 q 308 161 325 168 q 271 154 290 154 q 244 165 256 154 q 232 192 232 176 l 232 322 l 64 322 l 64 192 q 82 106 64 144 q 130 42 100 68 q 200 1 160 15 q 286 -14 240 -14 q 367 2 329 -14 q 432 47 404 18 q 476 113 460 75 q 493 192 493 150 z "},"ю":{"ha":803,"x_min":63,"x_max":740,"o":"m 272 986 q 358 969 318 986 q 426 922 397 951 q 473 852 456 892 q 490 768 490 813 l 490 571 l 574 571 l 574 972 l 740 972 l 740 0 l 574 0 l 574 406 l 490 406 l 490 204 q 473 120 490 160 q 426 51 456 81 q 358 3 397 21 q 272 -14 318 -14 q 191 3 229 -14 q 124 48 153 19 q 79 115 96 76 q 63 196 63 153 l 63 776 q 79 858 63 819 q 124 924 96 896 q 191 969 153 953 q 272 986 229 986 m 272 154 q 308 169 293 154 q 322 204 322 185 l 322 768 q 308 803 322 788 q 272 818 293 818 q 243 806 256 818 q 231 775 231 793 l 231 197 q 243 167 231 179 q 272 154 256 154 z "},"ґ":{"ha":475,"x_min":63,"x_max":440,"o":"m 274 972 l 274 1042 l 440 1042 l 440 806 l 229 806 l 229 0 l 63 0 l 63 972 l 274 972 z "},"є":{"ha":557,"x_min":64,"x_max":493,"o":"m 64 192 l 64 779 q 82 865 64 826 q 130 930 100 903 q 200 972 160 957 q 286 986 240 986 q 367 969 329 986 q 433 925 404 953 q 477 859 461 897 q 493 779 493 821 l 493 651 l 325 651 l 325 779 q 308 810 325 803 q 271 817 290 817 q 244 806 256 817 q 232 779 232 794 l 232 571 l 399 571 l 399 404 l 232 404 l 232 192 q 249 161 232 168 q 286 154 267 154 q 313 165 301 154 q 325 192 325 176 l 325 322 l 493 322 l 493 192 q 475 106 493 144 q 427 42 457 68 q 357 1 397 15 q 271 -14 317 -14 q 190 2 228 -14 q 125 47 153 18 q 81 113 97 75 q 64 192 64 150 z "},"˙":{"ha":239,"x_min":63,"x_max":176,"o":"m 63 1115 l 176 1115 l 176 1003 l 64 1001 l 63 1115 z "},"Є":{"ha":557,"x_min":64,"x_max":493,"o":"m 64 192 l 64 779 q 82 865 64 826 q 130 930 100 903 q 200 972 160 957 q 286 986 240 986 q 367 969 329 986 q 433 925 404 953 q 477 859 461 897 q 493 779 493 821 l 493 651 l 325 651 l 325 779 q 308 810 325 803 q 271 817 290 817 q 244 806 256 817 q 232 779 232 794 l 232 571 l 399 571 l 399 404 l 232 404 l 232 192 q 249 161 232 168 q 286 154 267 154 q 313 165 301 154 q 325 192 325 176 l 325 322 l 493 322 l 493 192 q 475 106 493 144 q 427 42 457 68 q 357 1 397 15 q 271 -14 317 -14 q 190 2 228 -14 q 125 47 153 18 q 81 113 97 75 q 64 192 64 150 z "},"¾":{"ha":688,"x_min":56,"x_max":639,"o":"m 56 596 l 57 628 l 137 628 q 136 610 137 621 q 138 589 136 599 q 145 572 140 579 q 160 565 151 565 q 183 588 183 565 l 182 664 q 172 689 182 685 q 146 693 161 693 l 138 693 l 138 773 q 170 778 158 773 q 182 807 182 783 l 183 878 q 176 896 182 890 q 160 901 169 901 q 144 894 149 901 q 138 878 140 888 q 136 858 136 868 q 137 840 137 847 l 57 840 l 56 859 q 63 906 56 883 q 83 946 69 928 q 116 973 96 963 q 162 983 135 983 q 208 973 188 983 q 240 946 227 963 q 260 907 253 928 q 266 860 266 885 q 265 827 266 844 q 260 793 264 810 q 250 761 257 776 q 231 733 242 746 q 250 706 243 721 q 260 674 257 691 q 265 641 264 658 q 266 607 266 624 q 259 560 266 583 q 240 520 253 538 q 207 493 227 503 q 160 483 188 483 q 117 492 136 483 q 84 517 98 501 q 64 552 71 532 q 56 596 56 573 m 465 972 l 589 972 l 218 0 l 93 0 l 465 972 m 366 221 l 515 486 l 599 486 l 599 222 l 639 222 l 639 138 l 599 138 l 599 0 l 515 0 l 515 138 l 366 138 l 366 221 m 515 222 l 515 329 l 454 222 l 515 222 z "},"½":{"ha":642,"x_min":49,"x_max":593,"o":"m 49 878 l 49 933 q 91 945 76 936 q 119 972 105 953 l 197 972 l 197 486 l 114 486 l 114 878 l 49 878 m 422 972 l 546 972 l 175 0 l 50 0 l 422 972 m 376 401 q 384 443 376 424 q 407 476 392 462 q 440 499 421 490 q 481 507 460 507 q 531 496 510 507 q 565 466 551 485 q 585 424 578 448 q 592 374 592 400 q 588 330 592 351 q 572 288 583 309 q 524 192 548 240 q 474 97 499 144 l 589 97 l 589 14 l 377 14 l 377 97 q 394 129 386 114 q 409 157 402 142 q 422 181 417 172 q 460 253 441 217 q 497 326 478 289 q 506 349 502 338 q 509 375 509 361 q 508 390 509 382 q 504 405 507 398 q 495 417 501 413 q 481 422 490 422 q 467 417 472 422 q 461 405 463 413 q 460 390 460 398 q 460 376 460 382 l 376 376 l 376 401 z "},"¼":{"ha":653,"x_min":49,"x_max":604,"o":"m 49 878 l 49 933 q 91 945 76 936 q 119 972 105 953 l 197 972 l 197 486 l 114 486 l 114 878 l 49 878 m 444 972 l 568 972 l 197 0 l 72 0 l 444 972 m 331 221 l 480 486 l 564 486 l 564 222 l 604 222 l 604 138 l 564 138 l 564 0 l 480 0 l 480 138 l 331 138 l 331 221 m 480 222 l 480 329 l 419 222 l 480 222 z "},"⁄":{"ha":538,"x_min":21,"x_max":517,"o":"m 393 972 l 517 972 l 146 0 l 21 0 l 393 972 z "},"‰":{"ha":914,"x_min":49,"x_max":865,"o":"m 444 972 l 568 972 l 197 0 l 72 0 l 444 972 m 49 589 l 49 878 q 79 952 49 921 q 154 983 110 983 q 196 974 176 983 q 230 951 215 965 q 253 916 244 936 q 263 874 263 896 l 263 592 q 254 550 263 569 q 231 516 246 531 q 197 492 217 501 q 154 483 176 483 q 79 514 110 483 q 49 589 49 544 m 394 99 l 394 388 q 425 462 394 431 q 500 493 456 493 q 576 460 544 493 q 608 383 608 428 l 608 101 q 600 60 608 79 q 577 26 592 40 q 542 2 563 11 q 500 -7 522 -7 q 425 24 456 -7 q 394 99 394 54 m 757 493 q 833 460 801 493 q 865 383 865 428 l 865 101 q 857 60 865 79 q 834 26 849 40 q 799 2 819 11 q 757 -7 779 -7 q 682 24 713 -7 q 651 99 651 54 l 651 388 q 682 462 651 431 q 757 493 713 493 m 154 567 q 172 574 164 567 q 179 592 179 582 l 179 874 q 172 892 179 885 q 154 899 164 899 q 140 892 146 899 q 133 878 133 886 l 133 589 q 140 574 133 581 q 154 567 146 567 m 500 76 q 517 84 510 76 q 525 101 525 92 l 525 383 q 517 401 525 394 q 500 408 510 408 q 485 402 492 408 q 479 388 479 396 l 479 99 q 485 83 479 90 q 500 76 492 76 m 736 99 q 742 83 736 90 q 757 76 749 76 q 774 84 767 76 q 782 101 782 92 l 782 383 q 774 401 782 394 q 757 408 767 408 q 742 402 749 408 q 736 388 736 396 l 736 99 z "},"ﬁ":{"ha":796,"x_min":63,"x_max":733,"o":"m 63 0 l 63 972 l 442 972 l 442 806 l 229 806 l 229 571 l 425 571 l 425 404 l 229 404 l 229 0 l 63 0 m 567 971 l 733 971 l 733 0 l 567 0 l 567 971 z "},"ﬂ":{"ha":993,"x_min":63,"x_max":944,"o":"m 63 0 l 63 972 l 442 972 l 442 806 l 229 806 l 229 571 l 425 571 l 425 404 l 229 404 l 229 0 l 63 0 m 567 972 l 733 972 l 733 167 l 944 167 l 944 0 l 567 0 l 567 972 z "},"¢":{"ha":542,"x_min":64,"x_max":493,"o":"m 64 192 l 64 779 q 101 899 64 850 q 196 969 138 947 l 196 1043 l 363 1043 l 361 972 q 456 897 419 949 q 493 779 493 844 l 493 651 l 325 651 l 325 779 q 308 810 325 803 q 271 817 290 817 q 244 806 256 817 q 232 779 232 794 l 232 192 q 249 161 232 168 q 286 154 267 154 q 313 165 301 154 q 325 192 325 176 l 325 322 l 493 322 l 493 192 q 457 73 493 121 q 363 3 421 25 l 363 -69 l 196 -69 l 196 0 q 101 75 138 24 q 64 192 64 126 z "},"€":{"ha":613,"x_min":63,"x_max":550,"o":"m 63 438 l 121 438 l 121 525 l 63 525 l 63 642 l 121 642 l 121 779 q 138 860 121 822 q 182 926 154 897 q 247 970 210 954 q 328 986 285 986 l 343 986 q 424 970 386 986 q 489 926 461 954 q 533 861 517 899 q 550 781 550 824 l 382 781 l 382 779 q 370 806 382 794 q 343 818 358 818 l 328 818 q 301 806 313 818 q 289 779 289 794 l 289 642 l 422 642 l 422 525 l 289 525 l 289 438 l 422 438 l 422 322 l 289 322 l 289 193 q 301 166 289 178 q 328 154 313 154 l 343 154 q 370 166 358 154 q 382 193 382 178 l 382 196 l 550 196 l 550 193 q 534 113 550 150 q 490 47 518 75 q 424 3 461 19 q 343 -14 386 -14 l 328 -14 q 247 3 285 -14 q 182 47 210 19 q 138 113 154 75 q 121 193 121 150 l 121 322 l 63 322 l 63 438 z "},"˚":{"ha":417,"x_min":58,"x_max":376,"o":"m 176 1117 q 189 1088 176 1100 q 218 1076 201 1076 q 247 1088 235 1076 q 258 1117 258 1100 q 247 1145 258 1133 q 218 1157 235 1157 q 189 1145 201 1157 q 176 1117 176 1133 m 58 1118 l 58 1117 l 58 1118 m 58 1117 q 71 1178 58 1150 q 106 1228 83 1207 q 156 1263 128 1250 q 218 1275 185 1275 q 280 1263 251 1275 q 330 1229 308 1250 q 364 1179 351 1208 q 376 1117 376 1150 q 364 1055 376 1083 q 330 1005 351 1026 q 280 971 308 983 q 218 958 251 958 q 157 971 186 958 q 106 1005 128 983 q 72 1055 85 1026 q 58 1117 58 1083 z "},"Å":{"ha":588,"x_min":49,"x_max":539,"o":"m 49 0 l 153 972 l 436 972 l 539 0 l 372 0 l 340 319 l 247 319 l 217 0 l 49 0 m 324 486 l 294 822 l 264 486 l 324 486 m 253 1110 q 265 1081 253 1093 q 294 1069 278 1069 q 323 1081 311 1069 q 335 1110 335 1093 q 323 1138 335 1126 q 294 1150 311 1150 q 265 1138 278 1150 q 253 1110 253 1126 m 135 1111 l 135 1110 l 135 1111 m 135 1110 q 147 1172 135 1143 q 182 1222 160 1200 q 233 1256 204 1243 q 294 1268 261 1268 q 356 1256 328 1268 q 406 1222 385 1243 q 440 1172 428 1201 q 453 1110 453 1143 q 440 1048 453 1076 q 406 998 428 1019 q 356 964 385 976 q 294 951 328 951 q 233 964 263 951 q 183 998 204 976 q 148 1048 161 1019 q 135 1110 135 1076 z "},"å":{"ha":588,"x_min":49,"x_max":539,"o":"m 49 0 l 153 972 l 436 972 l 539 0 l 372 0 l 340 319 l 247 319 l 217 0 l 49 0 m 324 486 l 294 822 l 264 486 l 324 486 m 253 1110 q 265 1081 253 1093 q 294 1069 278 1069 q 323 1081 311 1069 q 335 1110 335 1093 q 323 1138 335 1126 q 294 1150 311 1150 q 265 1138 278 1150 q 253 1110 253 1126 m 135 1111 l 135 1110 l 135 1111 m 135 1110 q 147 1172 135 1143 q 182 1222 160 1200 q 233 1256 204 1243 q 294 1268 261 1268 q 356 1256 328 1268 q 406 1222 385 1243 q 440 1172 428 1201 q 453 1110 453 1143 q 440 1048 453 1076 q 406 998 428 1019 q 356 964 385 976 q 294 951 328 951 q 233 964 263 951 q 183 998 204 976 q 148 1048 161 1019 q 135 1110 135 1076 z "},"°":{"ha":417,"x_min":58,"x_max":376,"o":"m 176 972 q 189 944 176 956 q 218 932 201 932 q 247 944 235 932 q 258 972 258 956 q 247 1001 258 989 q 218 1013 235 1013 q 189 1001 201 1013 q 176 972 176 989 m 58 974 l 58 972 l 58 974 m 58 972 q 71 1034 58 1006 q 106 1084 83 1063 q 156 1118 128 1106 q 218 1131 185 1131 q 280 1118 251 1131 q 330 1085 308 1106 q 364 1035 351 1064 q 376 972 376 1006 q 364 910 376 939 q 330 860 351 882 q 280 826 308 839 q 218 814 251 814 q 157 826 186 814 q 106 860 128 839 q 72 910 85 882 q 58 972 58 939 z "},"ł":{"ha":515,"x_min":63,"x_max":453,"o":"m 63 499 l 175 539 l 175 972 l 342 972 l 342 600 l 453 640 l 453 474 l 342 433 l 342 0 l 175 0 l 175 372 l 63 332 l 63 499 z "},"\n":{"ha":694,"x_min":0,"x_max":0,"o":""}}}
